<?xml version="1.0" encoding="UTF-8" standalone="no"?>
<svg
   width="32.48999"
   height="38.296558"
   viewBox="0 0 32.489991 38.29656"
   version="1.1"
   id="svg310"
   sodipodi:docname="arrow-down.svg"
   inkscape:version="1.2 (dc2aedaf03, 2022-05-15)"
   xmlns:inkscape="http://www.inkscape.org/namespaces/inkscape"
   xmlns:sodipodi="http://sodipodi.sourceforge.net/DTD/sodipodi-0.dtd"
   xmlns="http://www.w3.org/2000/svg"
   xmlns:svg="http://www.w3.org/2000/svg">
  <defs
     id="defs314" />
  <sodipodi:namedview
     id="namedview312"
     pagecolor="#505050"
     bordercolor="#eeeeee"
     borderopacity="1"
     inkscape:showpageshadow="0"
     inkscape:pageopacity="0"
     inkscape:pagecheckerboard="0"
     inkscape:deskcolor="#505050"
     showgrid="false"
     inkscape:zoom="13.069192"
     inkscape:cx="0.34432121"
     inkscape:cy="15.609228"
     inkscape:window-width="1920"
     inkscape:window-height="1007"
     inkscape:window-x="0"
     inkscape:window-y="0"
     inkscape:window-maximized="1"
     inkscape:current-layer="svg310" />
  <path
     id="Path_1"
     d="m 14.093548,3.2489998 c 0.01886,3.6321022 -0.164261,25.9336242 -0.164261,25.9336242 0,0 -5.4545079,-5.390241 -8.5878436,-8.547912 -3.1333357,-3.157671 -6.7220476,0.854342 -3.7419392,3.719773 2.9801084,2.86543 10.9313608,10.50283 13.2946268,12.726577 0.994143,0.935452 2.501787,0.997836 3.5,0 0.785633,-0.785336 9.783901,-10.157354 12.573817,-13.136543 2.789916,-2.97919 -0.746387,-5.855896 -3.275003,-3.395919 -2.528616,2.459977 -8.763658,8.630118 -8.763658,8.630118 0,0 0.03247,-22.1992826 0,-25.9160155 -0.03247,-3.71673291 -4.854594,-3.64580481 -4.835739,-0.013703 z"
     sodipodi:nodetypes="zczzsszzczz"
     style="stroke:#ffffff;stroke-opacity:1" />
</svg>
