<?xml version="1.0" encoding="UTF-8" standalone="no"?>
<svg
   id="svglogo"
   width="254.59"
   height="90.074997"
   viewBox="0 0 254.58999 90.074997"
   version="1.1"
   sodipodi:docname="logo.svg"
   inkscape:version="1.1.2 (0a00cf5339, 2022-02-04)"
   xmlns:inkscape="http://www.inkscape.org/namespaces/inkscape"
   xmlns:sodipodi="http://sodipodi.sourceforge.net/DTD/sodipodi-0.dtd"
   xmlns="http://www.w3.org/2000/svg"
   xmlns:svg="http://www.w3.org/2000/svg">
  <g
     id="simple1noback"
     clip-path="url(#clip-path)"
     transform="translate(0.99,0.99702417)">
    <path
       id="Path_12"
       data-name="Path 12"
       d="m 121.123,95.883 -3.694,-1.468 v -7.1 l 3.694,-1.468 c 3.6,-1.421 3.694,-1.468 3.646,-1.847 -0.047,-0.189 -0.189,-0.947 -0.331,-1.752 a 27.983,27.983 0 0 0 -1.184,-4.452 c -0.095,-0.095 -6.109,0.237 -7.435,0.379 l -0.521,0.047 -0.663,-1.61 c -0.379,-0.852 -1.089,-2.273 -1.563,-3.126 l -0.852,-1.563 0.331,-0.331 c 0.189,-0.189 1.373,-1.563 2.7,-2.983 1.61,-1.752 2.32,-2.6 2.273,-2.747 -0.047,-0.095 -0.568,-0.758 -1.089,-1.468 a 25.707,25.707 0 0 0 -3.031,-3.5 c -0.189,-0.095 -0.947,0.284 -3.646,1.752 l -3.41,1.894 -1.137,-0.947 a 43.691,43.691 0 0 0 -4.073,-3.078 0.427,0.427 0 0 1 -0.284,-0.284 c 0,-0.047 0.521,-1.847 1.137,-3.883 0.852,-2.841 1.089,-3.789 0.947,-3.836 a 43.3,43.3 0 0 0 -6.062,-2.841 c 0,0 -1.042,1.459 -2.276,3.259 -1.234,1.8 -2.27,3.22 -2.27,3.27 a 10.127,10.127 0 0 1 -1.61,-0.474 32.78,32.78 0 0 0 -3.41,-0.805 c -0.994,-0.189 -1.847,-0.331 -1.894,-0.331 -0.047,0 -0.284,-1.752 -0.663,-3.883 l -0.616,-3.836 -0.758,-0.047 a 53.139,53.139 0 0 0 -5.493,0 l -0.758,0.047 -0.615,3.829 c -0.331,2.131 -0.616,3.883 -0.663,3.883 -0.047,0 -0.852,0.189 -1.894,0.331 a 27.459,27.459 0 0 0 -3.41,0.805 c -0.852,0.237 -1.61,0.474 -1.61,0.474 0,0 -1.042,-1.468 -2.273,-3.268 C 65.384,51.173 64.39,49.657 64.39,49.657 A 53.024,53.024 0 0 0 58.328,52.5 c -0.095,0.047 0.095,0.947 0.947,3.836 0.616,2.036 1.137,3.789 1.137,3.883 a 0.427,0.427 0 0 1 -0.284,0.284 51,51 0 0 0 -4.073,3.078 l -1.137,0.947 -3.362,-1.894 C 49.662,61.6 48.146,60.744 48,60.744 c -0.284,0 -2.51,2.6 -3.931,4.641 l -0.379,0.568 2.42,2.557 c 1.326,1.421 2.51,2.747 2.7,2.889 l 0.332,0.331 -0.854,1.47 c -0.474,0.805 -1.137,2.226 -1.563,3.126 l -0.663,1.657 -0.521,-0.047 c -1.326,-0.189 -7.293,-0.474 -7.435,-0.379 a 29.391,29.391 0 0 0 -1.184,4.452 c -0.189,0.805 -0.284,1.61 -0.332,1.752 -0.047,0.331 0,0.331 3.646,1.847 l 3.694,1.468 v 7.1 l -3.694,1.468 c -3.6,1.421 -3.694,1.468 -3.646,1.847 0.047,0.189 0.189,0.947 0.332,1.752 a 27.982,27.982 0 0 0 1.184,4.452 c 0.095,0.095 5.872,-0.189 7.435,-0.331 l 0.521,-0.047 0.663,1.61 a 32.05,32.05 0 0 0 1.563,3.126 l 0.852,1.563 -0.332,0.331 c -0.189,0.189 -1.373,1.563 -2.7,2.983 -1.61,1.752 -2.32,2.6 -2.273,2.747 0.047,0.095 0.568,0.758 1.089,1.468 a 25.706,25.706 0 0 0 3.031,3.5 c 0.189,0.095 0.947,-0.284 3.646,-1.752 l 3.412,-1.893 1.137,0.947 a 43.691,43.691 0 0 0 4.073,3.078 0.427,0.427 0 0 1 0.284,0.284 c 0,0.047 -0.521,1.847 -1.137,3.883 -0.852,2.841 -1.089,3.789 -0.947,3.836 0.095,0.047 0.9,0.474 1.847,0.947 a 25.538,25.538 0 0 0 4.262,1.847 c 0.663,-1.089 4.167,-5.92 4.357,-6.156 l 0.237,-0.284 0.9,0.284 a 43.489,43.489 0 0 0 4.925,1.089 l 0.9,0.189 0.189,0.852 c 0.047,0.474 0.331,2.226 0.616,3.883 l 0.521,3.031 0.616,0.047 v 0 a 54.059,54.059 0 0 0 5.541,0 l 0.758,-0.047 0.521,-3.031 c 0.284,-1.657 0.568,-3.41 0.616,-3.883 l 0.189,-0.852 0.9,-0.189 c 1.421,-0.237 3.836,-0.805 4.925,-1.089 l 0.9,-0.284 0.237,0.284 c 0.189,0.237 3.646,5.067 4.357,6.156 0.095,0.189 2.178,-0.758 4.452,-1.894 1.373,-0.663 1.752,-0.947 1.752,-1.137 0,-0.19 -0.568,-1.847 -1.137,-3.836 l -1.089,-3.6 0.284,-0.237 c 1.752,-1.279 3.126,-2.32 4.073,-3.126 l 1.137,-0.947 3.41,1.894 c 2.7,1.468 3.5,1.894 3.646,1.752 a 29.663,29.663 0 0 0 3.031,-3.5 c 0.521,-0.758 1.042,-1.373 1.089,-1.468 a 13.049,13.049 0 0 0 -2.273,-2.747 c -1.326,-1.421 -2.51,-2.747 -2.7,-2.983 l -0.331,-0.331 0.852,-1.563 c 0.474,-0.852 1.137,-2.273 1.563,-3.126 l 0.663,-1.61 0.521,0.047 a 67.534,67.534 0 0 0 7.435,0.331 29.393,29.393 0 0 0 1.184,-4.452 c 0.189,-0.805 0.284,-1.61 0.332,-1.752 0.186,-0.137 0.091,-0.186 -3.508,-1.654 z m -13.686,-0.568 a 26.369,26.369 0 0 1 -7.1,13.97 24.764,24.764 0 0 1 -4.83,4.073 28.1,28.1 0 0 1 -11.176,4.167 v 0 a 45.367,45.367 0 0 1 -5.067,0.237 27.231,27.231 0 0 1 -13.312,-4.362 23.449,23.449 0 0 1 -4.83,-4.073 25.546,25.546 0 0 1 -4.073,-5.446 26.429,26.429 0 0 1 -2.226,-20.742 25.6,25.6 0 0 1 6.3,-10.561 27.45,27.45 0 0 1 39.4,0 26.369,26.369 0 0 1 7.1,13.97 36.018,36.018 0 0 1 -0.186,8.766 z"
       transform="translate(-21.674,-46.75)"
       fill="#435352"
       style="display:none" />
    <path
       id="Path_13"
       data-name="Path 13"
       d="m 274.086,176.667 a 9.419,9.419 0 0 1 -6.488,-4.5 15.855,15.855 0 0 1 -0.521,-13.591 9.653,9.653 0 0 1 6.772,-5.541 c 4.262,-0.852 8.24,0.616 10.182,3.931 0.663,1.184 0.758,1.7 0.189,2.226 a 1.894,1.894 0 0 1 -0.852,0.474 c -0.805,0.189 -1.137,-0.047 -1.847,-1.184 a 5.421,5.421 0 0 0 -2.178,-2.32 7.24,7.24 0 0 0 -4.972,-0.521 c -2.51,0.568 -4.4,2.7 -5.257,5.778 a 10.989,10.989 0 0 0 -0.284,3.41 12.125,12.125 0 0 0 0.284,3.5 7.708,7.708 0 0 0 4.688,5.588 10.788,10.788 0 0 0 3.883,0.284 5.76,5.76 0 0 0 4.215,-3.126 5.343,5.343 0 0 0 0.474,-3.362 l -0.189,-0.379 -2.463,-0.047 c -2.32,-0.047 -2.463,-0.047 -2.794,-0.379 -0.284,-0.237 -0.332,-0.474 -0.332,-0.947 0,-0.663 0.284,-1.089 0.805,-1.184 0.189,-0.047 1.657,-0.047 3.268,-0.047 3.268,0.047 3.5,0.095 3.978,0.947 0.237,0.379 0.237,0.805 0.284,5.351 a 49.543,49.543 0 0 1 -0.095,5.3 1.345,1.345 0 0 1 -1.847,0.474 c -0.521,-0.237 -0.521,-0.379 -0.521,-1.752 v -1.13 l -0.332,0.474 a 8.089,8.089 0 0 1 -4.215,2.415 14.965,14.965 0 0 1 -3.836,-0.142 z"
       transform="translate(-142.339,-102.577)"
       fill="#48c1bd" />
    <path
       id="Path_14"
       data-name="Path 14"
       d="m 463.286,176.667 a 9.419,9.419 0 0 1 -6.488,-4.5 15.855,15.855 0 0 1 -0.521,-13.591 9.653,9.653 0 0 1 6.772,-5.541 c 4.262,-0.852 8.24,0.616 10.182,3.931 0.663,1.184 0.758,1.7 0.189,2.226 a 1.894,1.894 0 0 1 -0.852,0.474 c -0.805,0.189 -1.137,-0.047 -1.847,-1.184 a 5.42,5.42 0 0 0 -2.178,-2.32 7.24,7.24 0 0 0 -4.972,-0.521 c -2.51,0.568 -4.4,2.7 -5.257,5.778 a 10.991,10.991 0 0 0 -0.284,3.41 12.127,12.127 0 0 0 0.284,3.5 7.708,7.708 0 0 0 4.686,5.591 10.787,10.787 0 0 0 3.883,0.284 5.761,5.761 0 0 0 4.215,-3.126 5.344,5.344 0 0 0 0.474,-3.362 l -0.19,-0.379 -2.463,-0.047 c -2.32,-0.047 -2.463,-0.047 -2.794,-0.379 -0.284,-0.237 -0.332,-0.474 -0.332,-0.947 0,-0.663 0.284,-1.089 0.805,-1.184 0.189,-0.047 1.657,-0.047 3.268,-0.047 3.268,0.047 3.5,0.095 3.978,0.947 0.237,0.379 0.237,0.805 0.284,5.351 a 49.527,49.527 0 0 1 -0.095,5.3 1.345,1.345 0 0 1 -1.847,0.474 c -0.521,-0.237 -0.521,-0.379 -0.521,-1.752 v -1.133 l -0.331,0.474 a 8.09,8.09 0 0 1 -4.215,2.415 14.888,14.888 0 0 1 -3.836,-0.142 z"
       transform="translate(-241.94,-102.577)"
       fill="#48c1bd" />
    <path
       id="Path_15"
       data-name="Path 15"
       d="m 329.238,164.8 c -4.357,-10.939 -4.4,-11.034 -5.257,-11.366 a 2.315,2.315 0 0 0 -2.7,0.852 c -0.568,1.137 -8.382,20.884 -8.382,21.263 a 1.347,1.347 0 0 0 0.852,1.137 v 0 a 1.416,1.416 0 0 0 1.373,0 c 0.379,-0.237 0.379,-0.189 1.989,-4.5 l 0.852,-2.273 h 10.371 l 1.089,2.841 c 1.373,3.552 1.468,3.789 1.942,3.931 0.852,0.331 2.131,-0.284 2.131,-1.042 -0.093,-0.185 -1.987,-5.11 -4.26,-10.843 z m -6.109,2.6 c -2.32,0 -4.215,-0.047 -4.215,-0.047 0,0 0.852,-2.273 1.894,-4.972 1.042,-2.699 1.989,-5.209 2.131,-5.588 a 2.093,2.093 0 0 1 0.284,-0.758 2.093,2.093 0 0 1 0.284,0.758 c 0.189,0.616 2.747,7.482 3.694,9.945 l 0.284,0.663 z"
       transform="translate(-167.136,-102.836)"
       fill="#48c1bd" />
    <path
       id="Path_16"
       data-name="Path 16"
       d="m 381.717,175.375 c -0.047,-0.237 -0.568,-1.563 -1.137,-2.889 -2.131,-5.02 -2.794,-6.2 -4.167,-6.914 l -0.331,-0.189 0.568,-0.189 a 5.221,5.221 0 0 0 3.552,-2.983 c 0.379,-0.852 0.379,-0.9 0.379,-2.6 a 5.837,5.837 0 0 0 -0.284,-2.51 5.761,5.761 0 0 0 -2.557,-2.747 c -1.468,-0.663 -2.415,-0.805 -7.435,-0.758 -4.452,0.047 -4.5,0.047 -5.02,0.331 a 2.449,2.449 0 0 0 -0.852,0.852 l -0.284,0.521 -0.047,10.324 c 0,5.73 0,10.466 0.047,10.608 a 0.861,0.861 0 0 0 0.474,0.521 v 0 a 2.052,2.052 0 0 0 0.9,0.189 0.987,0.987 0 0 0 0.947,-0.379 l 0.379,-0.379 v -9.8 h 3.031 c 3.694,0 4.12,0.047 5.162,1.089 0.852,0.852 1.61,2.32 2.983,6.109 1.184,3.126 1.421,3.5 2.415,3.362 0.898,-0.144 1.466,-0.717 1.277,-1.569 z m -6.63,-11.508 -4.167,0.047 -4.167,0.047 v -3.646 c 0,-3.552 0,-3.694 0.284,-3.931 0.284,-0.237 0.379,-0.284 4.215,-0.237 l 3.931,0.047 0.758,0.331 c 1.279,0.616 1.847,1.657 1.847,3.41 a 3.752,3.752 0 0 1 -2.036,3.6 z"
       transform="translate(-194.089,-102.99)"
       fill="#48c1bd" />
    <path
       id="Path_17"
       data-name="Path 17"
       d="m 422.238,164.8 c -4.357,-10.939 -4.4,-11.034 -5.257,-11.366 a 2.315,2.315 0 0 0 -2.7,0.852 c -0.568,1.137 -8.382,20.884 -8.382,21.263 a 1.347,1.347 0 0 0 0.852,1.137 v 0 a 1.416,1.416 0 0 0 1.373,0 c 0.379,-0.237 0.379,-0.189 1.989,-4.5 l 0.852,-2.273 h 10.371 l 1.089,2.841 c 1.373,3.552 1.468,3.789 1.942,3.931 0.852,0.331 2.131,-0.284 2.131,-1.042 0.002,-0.185 -1.892,-5.11 -4.26,-10.843 z m -6.014,2.6 c -2.32,0 -4.215,-0.047 -4.215,-0.047 0,0 0.852,-2.273 1.894,-4.972 1.042,-2.699 1.989,-5.209 2.131,-5.588 a 0.432,0.432 0 1 1 0.568,0 c 0.189,0.616 2.747,7.482 3.694,9.945 l 0.284,0.663 z"
       transform="translate(-216.094,-102.836)"
       fill="#48c1bd" />
    <path
       id="Path_18"
       data-name="Path 18"
       d="m 507.147,176.757 a 2.584,2.584 0 0 1 -1.563,-1.089 l -0.284,-0.521 v -19.8 l 0.284,-0.521 a 2.449,2.449 0 0 1 0.852,-0.852 l 0.521,-0.284 6.441,-0.047 6.44,-0.047 0.379,0.379 a 1.33,1.33 0 0 1 0.047,1.847 l -0.331,0.331 -5.825,0.047 c -5.588,0.047 -5.872,0.047 -6.062,0.331 -0.19,0.284 -0.189,0.9 -0.189,3.552 v 3.317 h 5.257 c 3.5,0 5.3,0.047 5.493,0.095 a 1.539,1.539 0 0 1 0.568,1.373 2.551,2.551 0 0 1 -0.331,0.616 l -0.284,0.284 H 508 v 3.883 c 0,3.126 0.047,3.931 0.189,4.167 0.095,0.237 0.474,0.237 6.156,0.331 l 6.014,0.047 0.331,0.331 a 1.379,1.379 0 0 1 -0.047,1.847 l -0.379,0.379 h -6.346 c -3.552,0.095 -6.583,0.047 -6.772,0 z"
       transform="translate(-268.422,-102.999)"
       fill="#48c1bd" />
    <path
       id="Path_19"
       data-name="Path 19"
       d="m 353.138,84.288 c -1.089,-4.736 -3.552,-8.1 -7.293,-9.992 a 17.45,17.45 0 0 0 -10.182,-1.137 c -5.825,1.184 -9.519,5.067 -10.892,11.366 a 20.108,20.108 0 0 0 -0.284,4.12 16.2,16.2 0 0 0 0.805,6.156 13.555,13.555 0 0 0 11.46,9.755 17.249,17.249 0 0 0 8.335,-1.089 c 4.452,-1.942 7.388,-6.109 8.24,-11.65 a 30.844,30.844 0 0 0 -0.189,-7.529 z m -6.393,7.912 c -0.663,3.315 -2.51,5.73 -5.067,6.63 a 11.77,11.77 0 0 1 -4.641,0.189 7.53,7.53 0 0 1 -5.067,-4.5 16.1,16.1 0 0 1 -0.379,-10.466 7.76,7.76 0 0 1 5.588,-5.588 8.292,8.292 0 0 1 5.825,0.852 9.019,9.019 0 0 1 3.646,5.257 21.681,21.681 0 0 1 0.095,7.626 z"
       transform="translate(-173.229,-60.491)"
       fill="#435352" />
    <path
       id="Path_20"
       data-name="Path 20"
       d="m 273.54,103.819 c 0.047,-0.331 0.095,-6.014 0.189,-12.5 l 0.047,-11.887 -4.546,0.095 c -2.51,0.047 -4.783,0.095 -5.162,0.189 L 263.5,79.763 V 73.7 l 1.089,0.095 c 0.568,0.047 6.109,0.095 12.265,0.095 6.156,0 11.7,-0.047 12.265,-0.095 l 1.089,-0.095 v 6.062 l -0.568,-0.047 c -0.284,-0.047 -2.6,-0.095 -5.162,-0.189 l -4.546,-0.095 0.047,12.029 c 0.047,6.63 0.095,12.265 0.189,12.5 l 0.095,0.521 H 273.4 Z"
       transform="translate(-141.13,-60.937)"
       fill="#435352" />
    <path
       id="Path_21"
       data-name="Path 21"
       d="m 398.391,103.751 c -0.237,-0.9 -4.12,-15.3 -6.346,-23.489 -0.805,-2.889 -1.421,-5.02 -1.752,-5.825 -0.047,-0.237 0.095,-0.237 3.5,-0.237 h 3.6 l 0.095,0.947 c 0.095,1.279 0.237,1.752 2.036,9.9 0.852,3.836 1.7,7.767 1.942,8.856 0.237,1.326 0.379,1.847 0.474,1.61 0.047,-0.237 0.237,-1.137 0.474,-2.131 0.237,-0.947 1.326,-5.162 2.463,-9.329 1.137,-4.167 2.178,-7.956 2.226,-8.382 0.284,-1.61 -0.095,-1.421 3.078,-1.421 h 2.794 l 0.237,1.137 c 0.095,0.616 1.184,4.641 2.415,8.9 1.231,4.259 2.32,8.572 2.51,9.519 a 3.948,3.948 0 0 0 0.474,1.61 8.033,8.033 0 0 0 0.284,-1.468 c 0.095,-0.758 1.042,-4.736 1.942,-8.95 1.7,-7.53 1.942,-8.524 2.131,-9.992 l 0.047,-0.758 h 7.2 l -0.474,1.373 c -0.521,1.468 -6.725,24.2 -7.482,27.23 l -0.474,1.942 -3.078,-0.047 -3.078,-0.047 -0.284,-1.421 c -0.189,-0.805 -1.184,-4.688 -2.273,-8.619 -1.089,-3.931 -2.178,-8.1 -2.415,-9.235 -0.284,-1.373 -0.474,-1.942 -0.521,-1.7 a 11.41,11.41 0 0 0 -0.332,1.752 c -0.189,0.805 -1.279,4.972 -2.415,9.329 -1.136,4.357 -2.226,8.24 -2.273,8.619 a 8.95,8.95 0 0 1 -0.237,1.089 l -0.047,0.284 h -6.156 z"
       transform="translate(-207.875,-61.201)"
       fill="#435352" />
    <path
       id="Path_22"
       data-name="Path 22"
       d="m 480.684,104.408 c 0.474,-1.137 0.474,-28.888 0,-30.072 -0.047,-0.189 0.237,-0.237 3.41,-0.237 h 3.552 l 0.521,1.089 c 0.284,0.568 3.031,4.783 6.156,9.519 3.078,4.641 5.92,8.95 6.3,9.613 0.616,1.184 0.852,1.421 0.663,0.805 -0.047,-0.189 -0.189,-4.736 -0.237,-10.087 -0.048,-5.351 -0.189,-9.992 -0.237,-10.324 l -0.047,-0.568 h 6.725 l -0.095,0.663 c -0.095,0.9 -0.095,28.651 0,29.361 l 0.095,0.521 h -7.151 l -0.332,-0.616 A 85.526,85.526 0 0 0 494.75,95.93 c -1.894,-2.794 -4.12,-6.062 -4.925,-7.246 -0.805,-1.184 -1.847,-2.841 -2.32,-3.694 -0.758,-1.326 -0.852,-1.468 -0.805,-1.042 0.047,0.284 0.095,4.925 0.189,10.229 0.047,5.3 0.189,9.945 0.237,10.182 l 0.095,0.521 h -3.362 c -2.984,-0.237 -3.268,-0.237 -3.173,-0.474 z"
       transform="translate(-255.455,-61.148)"
       fill="#435352" />
    <path
       id="Path_23"
       data-name="Path 23"
       d="M 229.3,60.251 V 52.2 h 6.3 v 16.1 h -6.3 z"
       transform="translate(-123.126,-49.619)"
       fill="#48c1bd" />
    <path
       id="Path_24"
       data-name="Path 24"
       d="M 53.094,60.855 49.4,60.808 V 50.295 h 3.315 c 1.847,0 3.5,-0.047 3.694,-0.047 l 0.379,-0.047 v 2.036 h -5.257 l -0.047,1.137 -0.047,1.137 h 4.783 l 0.047,0.9 0.047,0.9 h -4.878 v 2.6 l 2.747,-0.047 2.747,-0.047 v 1.042 c 0,0.568 -0.047,1.042 -0.095,0.947 a 33.233,33.233 0 0 1 -3.741,0.047 z"
       transform="translate(-28.421,-48.566)"
       fill="#48c1bd" />
    <path
       id="Path_25"
       data-name="Path 25"
       d="M 8.462,56.556 8.51,52.2 6.81,52.342 5.11,52.389 V 50.4 h 9 v 1.989 h -1.7 l -1.752,-0.047 v 8.524 H 8.415 Z"
       transform="translate(-5.1,-48.671)"
       fill="#48c1bd" />
    <path
       id="Path_26"
       data-name="Path 26"
       d="M 26.4,55.757 V 50.5 h 2.178 l -0.047,1.989 -0.047,2.036 h 4.878 L 33.315,52.489 33.267,50.5 h 2.226 v 10.418 h -2.226 v -4.5 h -4.736 l 0.047,2.273 v 2.226 H 26.4 Z"
       transform="translate(-16.313,-48.724)"
       fill="#48c1bd" />
  </g>
  <g
     transform="translate(66.097,45.097)"
     viewBox="-512 -512 1024 1024"
     id="g1542">
    <path
       id="simple1nobackGear"
       data-name="Path 1"
       d="m 40.443901,5.0330242 -3.694002,-1.468 v -7.1 l 3.694002,-1.468 c 3.600002,-1.421 3.694002,-1.468 3.646002,-1.847 -0.047,-0.189 -0.189,-0.947 -0.331,-1.752 a 27.983015,27.983 0 0 0 -1.184,-4.4520002 c -0.095,-0.095 -6.109004,0.237 -7.435004,0.379 l -0.521001,0.047 -0.663,-1.61 c -0.379,-0.852 -1.089001,-2.273 -1.563001,-3.126 l -0.852,-1.563 0.331,-0.331 c 0.189,-0.189 1.373001,-1.563 2.700001,-2.983 1.610001,-1.752 2.320002,-2.6 2.273002,-2.747 -0.047,-0.095 -0.568001,-0.758 -1.089001,-1.468 a 25.707014,25.707 0 0 0 -3.031002,-3.5 c -0.189,-0.095 -0.947,0.284 -3.646002,1.752 l -3.410002,1.894 -1.137,-0.947 a 43.691024,43.691 0 0 0 -4.073002,-3.078 0.42700023,0.427 0 0 1 -0.284,-0.284 c 0,-0.047 0.521,-1.847 1.137,-3.883 0.852001,-2.841 1.089001,-3.789 0.947001,-3.836 a 43.300023,43.3 0 0 0 -6.062004,-2.841 c 0,0 -1.042,1.459 -2.276001,3.259 -1.234001,1.8 -2.270001,3.22 -2.270001,3.27 a 10.127005,10.127 0 0 1 -1.610001,-0.474 32.780018,32.78 0 0 0 -3.4100018,-0.805 c -0.9940005,-0.189 -1.847001,-0.331 -1.894001,-0.331 -0.047,0 -0.2840002,-1.752 -0.6630004,-3.883 l -0.6160003,-3.836 -0.7580004,-0.047 a 53.139029,53.139 0 0 0 -5.493003,0 l -0.7580004,0.047 -0.6150003,3.829 c -0.3310002,2.131 -0.6160003,3.883 -0.6630004,3.883 -0.047,0 -0.8520004,0.189 -1.894001,0.331 a 27.459015,27.459 0 0 0 -3.410002,0.805 c -0.852,0.237 -1.610001,0.474 -1.610001,0.474 0,0 -1.042,-1.468 -2.273001,-3.268 -1.279001,-1.752 -2.273001,-3.268 -2.273001,-3.268 a 53.024029,53.024 0 0 0 -6.062003,2.843 c -0.095,0.047 0.095,0.947 0.947,3.836 0.616,2.036 1.137001,3.789 1.137001,3.883 a 0.42700023,0.427 0 0 1 -0.284,0.284 51.000028,51 0 0 0 -4.073003,3.078 l -1.137,0.947 -3.362002,-1.894 c -1.894001,-1.034 -3.410002,-1.89 -3.556002,-1.89 -0.284,0 -2.510001,2.6 -3.931002,4.641 l -0.379,0.568 2.420001,2.557 c 1.326001,1.421 2.510001,2.747 2.700001,2.889 l 0.332001,0.331 -0.854001,1.47 c -0.474,0.805 -1.137,2.226 -1.563001,3.126 l -0.663,1.657 -0.521,-0.047 c -1.326001,-0.189 -7.293004,-0.474 -7.435004,-0.379 a 29.391016,29.391 0 0 0 -1.184001,4.4520002 c -0.189,0.805 -0.284,1.61 -0.332,1.752 -0.047,0.331 0,0.331 3.646002,1.847 l 3.694002,1.468 v 7.1 l -3.694002,1.468 c -3.600002,1.421 -3.694002,1.468 -3.646002,1.847 0.047,0.189 0.189,0.947 0.332,1.752 a 27.982015,27.982 0 0 0 1.184001,4.4519998 c 0.095,0.095 5.872003,-0.189 7.435004,-0.331 l 0.521,-0.047 0.663,1.61 a 32.050017,32.05 0 0 0 1.563001,3.126 l 0.852001,1.563 -0.332001,0.331 c -0.189,0.189 -1.373,1.563 -2.700001,2.983 -1.610001,1.752 -2.320001,2.6 -2.273001,2.747 0.047,0.095 0.568,0.758 1.089,1.468 a 25.706014,25.706 0 0 0 3.031002,3.5 c 0.189,0.095 0.947,-0.284 3.646002,-1.752 l 3.412002,-1.893 1.137,0.947 a 43.691024,43.691 0 0 0 4.073003,3.078 0.42700023,0.427 0 0 1 0.284,0.284 c 0,0.047 -0.521001,1.847 -1.137001,3.883 -0.852,2.841 -1.089,3.789 -0.947,3.836 0.095,0.047 0.9,0.474 1.847001,0.947 a 25.538014,25.538 0 0 0 4.262002,1.847 c 0.663,-1.089 4.167002,-5.92 4.357002,-6.156 l 0.237,-0.284 0.900001,0.284 a 43.489023,43.489 0 0 0 4.9250025,1.089 l 0.9000005,0.189 0.1890001,0.852 c 0.047,0.474 0.3310002,2.226 0.6160004,3.883 l 0.5210002,3.031 0.6160004,0.047 v 0 a 54.059029,54.059 0 0 0 5.541003,0 l 0.7580004,-0.047 0.5210003,-3.031 c 0.2840001,-1.657 0.5680003,-3.41 0.6160003,-3.883 l 0.1890001,-0.852 0.9000005,-0.189 c 1.4210007,-0.237 3.836002,-0.805 4.9250023,-1.089 l 0.900001,-0.284 0.237,0.284 c 0.189,0.237 3.646002,5.067 4.357002,6.156 0.095,0.189 2.178001,-0.758 4.452003,-1.894 1.373,-0.663 1.752001,-0.947 1.752001,-1.137 0,-0.19 -0.568001,-1.847 -1.137001,-3.836 l -1.089001,-3.6 0.284001,-0.237 c 1.752001,-1.279 3.126001,-2.32 4.073002,-3.126 l 1.137,-0.947 3.410002,1.894 c 2.700002,1.468 3.500002,1.894 3.646002,1.752 a 29.663016,29.663 0 0 0 3.031002,-3.5 c 0.521,-0.758 1.042,-1.373 1.089,-1.468 a 13.049007,13.049 0 0 0 -2.273001,-2.747 c -1.326001,-1.421 -2.510001,-2.747 -2.700001,-2.983 l -0.331,-0.331 0.852,-1.563 c 0.474,-0.852 1.137001,-2.273 1.563001,-3.126 l 0.663,-1.61 0.521001,0.047 a 67.534036,67.534 0 0 0 7.435004,0.331 29.393016,29.393 0 0 0 1.184,-4.4519998 c 0.189,-0.805 0.284,-1.61 0.332,-1.752 0.186,-0.137 0.091,-0.186 -3.508002,-1.654 z m -13.686007,-0.568 a 26.369014,26.369 0 0 1 -7.100004,13.9699998 24.764013,24.764 0 0 1 -4.830002,4.073 28.100015,28.1 0 0 1 -11.1760064,4.167 v 0 a 45.367024,45.367 0 0 1 -5.0670027,0.237 27.231015,27.231 0 0 1 -13.3120069,-4.362 23.449013,23.449 0 0 1 -4.830003,-4.073 25.546014,25.546 0 0 1 -4.073002,-5.446 26.429014,26.429 0 0 1 -2.226001,-20.7419998 25.600014,25.6 0 0 1 6.300003,-10.5610002 27.450015,27.45 0 0 1 39.400021,0 26.369014,26.369 0 0 1 7.100004,13.9700002 36.018019,36.018 0 0 1 -0.186,8.766 z"
       fill="#435352" />
  </g>
</svg>
