<svg width="35" height="35" viewBox="0 0 35 35" fill="none" xmlns="http://www.w3.org/2000/svg">
<path d="M6.2124 16.0709V23.3188C6.2124 25.973 6.2124 25.973 8.72074 27.6647L15.6187 31.6459C16.6541 32.2438 18.3457 32.2438 19.3812 31.6459L26.2791 27.6647C28.7874 25.973 28.7874 25.973 28.7874 23.3188V16.0709C28.7874 13.4168 28.7874 13.4168 26.2791 11.7251L19.3812 7.74385C18.3457 7.14593 16.6541 7.14593 15.6187 7.74385L8.72074 11.7251C6.2124 13.4168 6.2124 13.4168 6.2124 16.0709Z" stroke="#435352" stroke-width="2" stroke-linecap="round" stroke-linejoin="round"/>
<path d="M25.5207 11.1272V7.29175C25.5207 4.37508 24.0623 2.91675 21.1457 2.91675H13.854C10.9373 2.91675 9.479 4.37508 9.479 7.29175V11.0251" stroke="#435352" stroke-width="2" stroke-linecap="round" stroke-linejoin="round"/>
<path d="M18.4188 16.0271L19.2501 17.3251C19.3813 17.5292 19.673 17.7334 19.8918 17.7917L21.3793 18.1709C22.298 18.4042 22.5459 19.1917 21.948 19.9209L20.9709 21.1021C20.8251 21.2917 20.7084 21.6271 20.723 21.8605L20.8105 23.3917C20.8688 24.3396 20.198 24.8209 19.323 24.4709L17.8938 23.9021C17.6751 23.8146 17.3105 23.8146 17.0918 23.9021L15.6626 24.4709C14.7876 24.8209 14.1168 24.3251 14.1751 23.3917L14.2626 21.8605C14.2772 21.6271 14.1605 21.2771 14.0147 21.1021L13.0376 19.9209C12.4397 19.1917 12.6876 18.4042 13.6063 18.1709L15.0938 17.7917C15.3272 17.7334 15.6188 17.5146 15.7355 17.3251L16.5668 16.0271C17.0918 15.2396 17.9084 15.2396 18.4188 16.0271Z" stroke="#435352" stroke-width="2" stroke-linecap="round" stroke-linejoin="round"/>
</svg>