<svg width="35" height="35" viewBox="0 0 35 35" fill="none" xmlns="http://www.w3.org/2000/svg">
<path fill-rule="evenodd" clip-rule="evenodd" d="M11.4423 3.28125C11.9999 3.28125 12.4519 3.73327 12.4519 4.29086V5.30048H22.5481V4.29086C22.5481 3.73327 23.0002 3.28125 23.5577 3.28125C24.1152 3.28125 24.5673 3.73327 24.5673 4.29086V5.30048H27.5961C29.2689 5.30048 30.625 6.65653 30.625 8.32932V26.5024C30.625 28.1751 29.2689 29.5312 27.5961 29.5312H7.40384C5.73105 29.5312 4.375 28.1751 4.375 26.5024V8.32932C4.375 6.65653 5.73105 5.30048 7.40384 5.30048H10.4327V4.29086C10.4327 3.73327 10.8847 3.28125 11.4423 3.28125ZM22.5481 7.31971V8.32932C22.5481 8.88691 23.0002 9.33894 23.5577 9.33894C24.1152 9.33894 24.5673 8.88691 24.5673 8.32932V7.31971H27.5961C28.1537 7.31971 28.6058 7.77173 28.6058 8.32932V11.3582H6.39423V8.32932C6.39423 7.77173 6.84625 7.31971 7.40384 7.31971H10.4327V8.32932C10.4327 8.88691 10.8847 9.33894 11.4423 9.33894C11.9999 9.33894 12.4519 8.88691 12.4519 8.32932V7.31971H22.5481ZM6.39423 13.3774V26.5024C6.39423 27.0599 6.84625 27.512 7.40384 27.512H27.5961C28.1537 27.512 28.6058 27.0599 28.6058 26.5024V13.3774H6.39423ZM16.4904 16.4062C16.4904 15.8487 16.9424 15.3966 17.5 15.3966C18.0576 15.3966 18.5096 15.8487 18.5096 16.4062C18.5096 16.9638 18.0576 17.4159 17.5 17.4159C16.9424 17.4159 16.4904 16.9638 16.4904 16.4062ZM21.5385 15.3966C20.9809 15.3966 20.5288 15.8487 20.5288 16.4062C20.5288 16.9638 20.9809 17.4159 21.5385 17.4159C22.096 17.4159 22.5481 16.9638 22.5481 16.4062C22.5481 15.8487 22.096 15.3966 21.5385 15.3966ZM24.5673 16.4062C24.5673 15.8487 25.0194 15.3966 25.5769 15.3966C26.1344 15.3966 26.5865 15.8487 26.5865 16.4062C26.5865 16.9638 26.1344 17.4159 25.5769 17.4159C25.0194 17.4159 24.5673 16.9638 24.5673 16.4062ZM25.5769 19.4351C25.0194 19.4351 24.5673 19.8871 24.5673 20.4447C24.5673 21.0023 25.0194 21.4543 25.5769 21.4543C26.1344 21.4543 26.5865 21.0023 26.5865 20.4447C26.5865 19.8871 26.1344 19.4351 25.5769 19.4351ZM20.5288 20.4447C20.5288 19.8871 20.9809 19.4351 21.5385 19.4351C22.096 19.4351 22.5481 19.8871 22.5481 20.4447C22.5481 21.0023 22.096 21.4543 21.5385 21.4543C20.9809 21.4543 20.5288 21.0023 20.5288 20.4447ZM17.5 19.4351C16.9424 19.4351 16.4904 19.8871 16.4904 20.4447C16.4904 21.0023 16.9424 21.4543 17.5 21.4543C18.0576 21.4543 18.5096 21.0023 18.5096 20.4447C18.5096 19.8871 18.0576 19.4351 17.5 19.4351ZM12.4519 20.4447C12.4519 19.8871 12.9039 19.4351 13.4615 19.4351C14.0191 19.4351 14.4711 19.8871 14.4711 20.4447C14.4711 21.0023 14.0191 21.4543 13.4615 21.4543C12.9039 21.4543 12.4519 21.0023 12.4519 20.4447ZM9.42307 19.4351C8.86548 19.4351 8.41346 19.8871 8.41346 20.4447C8.41346 21.0023 8.86548 21.4543 9.42307 21.4543C9.98066 21.4543 10.4327 21.0023 10.4327 20.4447C10.4327 19.8871 9.98066 19.4351 9.42307 19.4351ZM8.41346 24.4832C8.41346 23.9257 8.86548 23.4735 9.42307 23.4735C9.98066 23.4735 10.4327 23.9257 10.4327 24.4832C10.4327 25.0407 9.98066 25.4928 9.42307 25.4928C8.86548 25.4928 8.41346 25.0407 8.41346 24.4832ZM13.4615 23.4735C12.9039 23.4735 12.4519 23.9257 12.4519 24.4832C12.4519 25.0407 12.9039 25.4928 13.4615 25.4928C14.0191 25.4928 14.4711 25.0407 14.4711 24.4832C14.4711 23.9257 14.0191 23.4735 13.4615 23.4735ZM16.4904 24.4832C16.4904 23.9257 16.9424 23.4735 17.5 23.4735C18.0576 23.4735 18.5096 23.9257 18.5096 24.4832C18.5096 25.0407 18.0576 25.4928 17.5 25.4928C16.9424 25.4928 16.4904 25.0407 16.4904 24.4832ZM21.5385 23.4735C20.9809 23.4735 20.5288 23.9257 20.5288 24.4832C20.5288 25.0407 20.9809 25.4928 21.5385 25.4928C22.096 25.4928 22.5481 25.0407 22.5481 24.4832C22.5481 23.9257 22.096 23.4735 21.5385 23.4735Z" fill="#435352"/>
</svg>