<svg width="80" height="80" viewBox="0 0 80 80" fill="none" xmlns="http://www.w3.org/2000/svg">
<path d="M59.9332 35.9667V49.3C59.9332 50.1667 59.8998 51 59.7998 51.8C59.0332 60.8 53.7332 65.2666 43.9665 65.2666H42.6332C41.7999 65.2666 40.9998 65.6666 40.4998 66.3333L36.4999 71.6667C34.7332 74.0333 31.8665 74.0333 30.0998 71.6667L26.0998 66.3333C25.6665 65.7666 24.6998 65.2666 23.9665 65.2666H22.6332C11.9999 65.2666 6.6665 62.6334 6.6665 49.3V35.9667C6.6665 26.2 11.1665 20.9 20.1332 20.1334C20.9332 20.0334 21.7665 20 22.6332 20H43.9665C54.5998 20 59.9332 25.3334 59.9332 35.9667Z" stroke="#435352" stroke-width="2.5" stroke-miterlimit="10" stroke-linecap="round" stroke-linejoin="round"/>
<path d="M73.2666 22.6334V35.9667C73.2666 45.7667 68.7666 51.0334 59.7999 51.8C59.8999 51 59.9333 50.1667 59.9333 49.3V35.9667C59.9333 25.3334 54.5999 20 43.9666 20H22.6333C21.7666 20 20.9333 20.0334 20.1333 20.1334C20.9 11.1667 26.2 6.66666 35.9666 6.66666H57.2999C67.9333 6.66666 73.2666 12 73.2666 22.6334Z" stroke="#435352" stroke-width="2.5" stroke-miterlimit="10" stroke-linecap="round" stroke-linejoin="round"/>
<path d="M44.9852 44.1667H45.0152" stroke="#435352" stroke-width="3.5" stroke-linecap="round" stroke-linejoin="round"/>
<path d="M33.3182 44.1667H33.3482" stroke="#435352" stroke-width="3.5" stroke-linecap="round" stroke-linejoin="round"/>
<path d="M21.6517 44.1667H21.6817" stroke="#435352" stroke-width="3.5" stroke-linecap="round" stroke-linejoin="round"/>
</svg>