<svg width="35" height="35" viewBox="0 0 35 35" fill="none" xmlns="http://www.w3.org/2000/svg">
<path d="M26.2502 10.4418C26.1627 10.4272 26.0606 10.4272 25.9731 10.4418C23.9606 10.3688 22.3564 8.72092 22.3564 6.67925C22.3564 4.59383 24.0335 2.91675 26.1189 2.91675C28.2044 2.91675 29.8814 4.60842 29.8814 6.67925C29.8669 8.72092 28.2627 10.3688 26.2502 10.4418Z" stroke="#435352" stroke-width="2" stroke-linecap="round" stroke-linejoin="round"/>
<path d="M24.7483 21.0584C26.7463 21.3938 28.9483 21.0438 30.4942 20.0084C32.5504 18.6376 32.5504 16.3917 30.4942 15.0209C28.9338 13.9855 26.7025 13.6355 24.7046 13.9855" stroke="#435352" stroke-width="2" stroke-linecap="round" stroke-linejoin="round"/>
<path d="M8.70645 10.4418C8.79395 10.4272 8.89603 10.4272 8.98353 10.4418C10.996 10.3688 12.6002 8.72092 12.6002 6.67925C12.6002 4.59383 10.9231 2.91675 8.8377 2.91675C6.75228 2.91675 5.0752 4.60842 5.0752 6.67925C5.08978 8.72092 6.69395 10.3688 8.70645 10.4418Z" stroke="#435352" stroke-width="2" stroke-linecap="round" stroke-linejoin="round"/>
<path d="M10.2084 21.0584C8.21051 21.3938 6.00843 21.0438 4.4626 20.0084C2.40635 18.6376 2.40635 16.3917 4.4626 15.0209C6.02301 13.9855 8.25426 13.6355 10.2522 13.9855" stroke="#435352" stroke-width="2" stroke-linecap="round" stroke-linejoin="round"/>
<path d="M17.4997 21.3353C17.4122 21.3207 17.3101 21.3207 17.2226 21.3353C15.2101 21.2624 13.606 19.6145 13.606 17.5728C13.606 15.4874 15.283 13.8103 17.3685 13.8103C19.4539 13.8103 21.131 15.502 21.131 17.5728C21.1164 19.6145 19.5122 21.277 17.4997 21.3353Z" stroke="#435352" stroke-width="2" stroke-linecap="round" stroke-linejoin="round"/>
<path d="M13.2561 25.9292C11.1998 27.3 11.1998 29.5458 13.2561 30.9166C15.5894 32.4771 19.4102 32.4771 21.7436 30.9166C23.7998 29.5458 23.7998 27.3 21.7436 25.9292C19.4248 24.3833 15.5894 24.3833 13.2561 25.9292Z" stroke="#435352" stroke-width="2" stroke-linecap="round" stroke-linejoin="round"/>
</svg>