<svg width="35" height="35" viewBox="0 0 35 35" fill="none" xmlns="http://www.w3.org/2000/svg">
<path d="M31.3104 27.7084V7.29175C31.3104 4.37508 29.852 2.91675 26.9354 2.91675H21.1021C18.1854 2.91675 16.7271 4.37508 16.7271 7.29175V27.7084C16.7271 30.6251 18.1854 32.0834 21.1021 32.0834H26.9354C29.852 32.0834 31.3104 30.6251 31.3104 27.7084Z" stroke="#435352" stroke-width="2" stroke-linecap="round"/>
<path d="M16.7271 8.75H24.0187" stroke="#435352" stroke-width="2" stroke-linecap="round"/>
<path d="M16.7271 26.25H22.5604" stroke="#435352" stroke-width="2" stroke-linecap="round"/>
<path d="M16.7271 20.3438L24.0187 20.4167" stroke="#435352" stroke-width="2" stroke-linecap="round"/>
<path d="M16.7271 14.5833H21.1021" stroke="#435352" stroke-width="2" stroke-linecap="round"/>
<path d="M8.00612 2.91675C5.62904 2.91675 3.68945 4.85633 3.68945 7.21883V26.1188C3.68945 26.7751 3.96654 27.7667 4.30195 28.3355L5.49779 30.3188C6.86862 32.6084 9.12904 32.6084 10.4999 30.3188L11.6957 28.3355C12.0311 27.7667 12.3082 26.7751 12.3082 26.1188V7.21883C12.3082 4.85633 10.3686 2.91675 8.00612 2.91675Z" stroke="#435352" stroke-width="2" stroke-linecap="round"/>
<path d="M12.3082 10.2083H3.68945" stroke="#435352" stroke-width="2" stroke-linecap="round"/>
</svg>