<svg width="82" height="82" viewBox="0 0 82 82" fill="none" xmlns="http://www.w3.org/2000/svg">
<path d="M10.2842 38.335V53.6758C10.2842 69.0166 16.4342 75.1666 31.775 75.1666H50.1908C65.5317 75.1666 71.6817 69.0166 71.6817 53.6758V38.335" stroke="#435352" stroke-width="2.5" stroke-linecap="round" stroke-linejoin="round"/>
<path d="M40.9998 40.9997C47.2523 40.9997 51.8648 35.9088 51.2498 29.6563L48.9948 6.83301H33.039L30.7498 29.6563C30.1348 35.9088 34.7473 40.9997 40.9998 40.9997Z" stroke="#435352" stroke-width="2.5" stroke-linecap="round" stroke-linejoin="round"/>
<path d="M62.5592 40.9997C69.4609 40.9997 74.5176 35.3963 73.8342 28.5288L72.8776 19.133C71.6476 10.2497 68.2309 6.83301 59.2792 6.83301H48.8584L51.2501 30.7838C51.8309 36.4213 56.9217 40.9997 62.5592 40.9997Z" stroke="#435352" stroke-width="2.5" stroke-linecap="round" stroke-linejoin="round"/>
<path d="M19.27 40.9997C24.9075 40.9997 29.9983 36.4213 30.545 30.7838L31.2966 23.233L32.9366 6.83301H22.5158C13.5641 6.83301 10.1475 10.2497 8.91746 19.133L7.99496 28.5288C7.31163 35.3963 12.3683 40.9997 19.27 40.9997Z" stroke="#435352" stroke-width="2.5" stroke-linecap="round" stroke-linejoin="round"/>
<path d="M41.0002 58.083C35.2943 58.083 32.4585 60.9188 32.4585 66.6247V75.1663H49.5418V66.6247C49.5418 60.9188 46.706 58.083 41.0002 58.083Z" stroke="#435352" stroke-width="2.5" stroke-linecap="round" stroke-linejoin="round"/>
</svg>