<svg width="150" height="60" viewBox="0 0 150 60" fill="none" xmlns="http://www.w3.org/2000/svg">
<path d="M18.3929 13.5879C20.0001 13.5879 21.6072 13.7644 23.2144 14.2938C24.8215 14.8232 26.2501 15.3526 27.5001 16.4114C28.7501 17.2938 29.8215 18.5291 30.5358 19.9408C31.2501 21.3526 31.7858 22.9408 31.7858 24.882C31.7858 27.3526 31.0715 29.2938 29.6429 30.882C28.2144 32.4702 26.4286 33.5291 24.2858 34.0585L33.3929 45.882H22.3215L13.5715 32.9997V45.882H4.46436V13.5879H18.3929ZM13.5715 22.0585V28.0585C14.1072 28.235 14.6429 28.4114 15.3572 28.5879C16.0715 28.7644 16.6072 28.7644 17.3215 28.7644C18.7501 28.7644 20.0001 28.4114 20.8929 27.882C21.7858 27.3526 22.3215 26.4702 22.3215 25.235C22.3215 23.9997 21.7858 23.1173 20.8929 22.5879C20.0001 22.0585 18.7501 21.882 17.3215 21.882H13.5715V22.0585ZM49.4644 20.4702C51.2501 20.4702 52.8572 20.8232 54.4644 21.3526C56.0715 22.0585 57.5001 22.9408 58.9286 23.9997C60.1786 25.235 61.2501 26.4702 61.9644 28.235C62.6786 29.8232 63.2144 31.5879 63.2144 33.5291C63.2144 35.4702 62.8572 37.235 61.9644 38.8232C61.2501 40.4114 60.1786 41.8232 58.9286 42.882C57.6786 44.1173 56.2501 44.9997 54.4644 45.5291C52.8572 46.235 51.0715 46.4114 49.4644 46.4114C47.6786 46.4114 46.0715 46.0585 44.4644 45.5291C42.8572 44.8232 41.4286 43.9408 40.0001 42.882C38.7501 41.6467 37.6786 40.4114 36.7858 38.8232C36.0715 37.235 35.7144 35.4702 35.7144 33.5291C35.7144 31.5879 36.0715 29.8232 36.7858 28.235C37.5001 26.6467 38.5715 25.235 40.0001 23.9997C41.2501 22.7644 42.6786 21.882 44.4644 21.3526C46.0715 20.8232 47.8572 20.4702 49.4644 20.4702ZM49.4644 28.5879C48.9286 28.5879 48.2144 28.7644 47.5001 28.9408C46.7858 29.1173 46.2501 29.6467 45.7144 30.3526C45.1786 31.0585 45.0001 32.1173 45.0001 33.5291C45.0001 34.9408 45.1786 35.9997 45.7144 36.7055C46.2501 37.4114 46.7858 37.9408 47.5001 38.1173C48.2144 38.2938 48.9286 38.4702 49.4644 38.4702C50.0001 38.4702 50.7144 38.2938 51.4286 38.1173C52.1429 37.9408 52.6786 37.4114 53.2144 36.7055C53.7501 35.9997 53.9286 34.9408 53.9286 33.5291C53.9286 32.1173 53.7501 31.0585 53.2144 30.3526C52.6786 29.6467 52.1429 29.1173 51.4286 28.9408C50.7144 28.5879 50.1786 28.5879 49.4644 28.5879Z" fill="#FFE4A2"/>
<path d="M80.5358 14.1172V21.3525H87.143V27.8819H80.5358V34.7642C80.5358 35.9995 80.7144 36.8819 81.2501 37.5878C81.7859 38.2937 82.5001 38.6466 83.393 38.6466C84.8216 38.6466 86.0716 38.2937 87.3216 37.5878V44.1172C86.7859 44.8231 85.893 45.529 84.8216 46.0584C83.7501 46.5878 82.3216 46.7642 80.7144 46.7642C79.1073 46.7642 77.6787 46.4113 76.4287 45.7054C75.1787 44.9995 74.1073 43.9407 73.2144 42.7054C72.5001 41.4701 71.9644 39.8819 71.9644 37.9407V28.0584H67.6787V22.9407C69.2859 22.5878 70.893 21.7054 72.3216 20.2937C73.9287 18.8819 75.0001 16.9407 75.7144 14.2937H80.5358V14.1172ZM104.464 20.4701C106.25 20.4701 107.857 20.8231 109.464 21.3525C111.072 22.0584 112.5 22.9407 113.929 23.9995C115.179 25.2348 116.25 26.4701 116.964 28.2348C117.679 29.8231 118.214 31.5878 118.214 33.529C118.214 35.4701 117.857 37.2348 116.964 38.8231C116.25 40.4113 115.179 41.8231 113.929 42.8819C112.679 44.1172 111.25 44.9995 109.464 45.529C107.857 46.2348 106.072 46.4113 104.464 46.4113C102.679 46.4113 101.072 46.0584 99.4644 45.529C97.8573 44.8231 96.4287 43.9407 95.0001 42.8819C93.7501 41.6466 92.6787 40.4113 91.7859 38.8231C91.0716 37.2348 90.7144 35.4701 90.7144 33.529C90.7144 31.5878 91.0716 29.8231 91.7859 28.2348C92.5001 26.6466 93.5716 25.2348 95.0001 23.9995C96.2501 22.7642 97.6787 21.8819 99.4644 21.3525C101.072 20.8231 102.857 20.4701 104.464 20.4701ZM104.464 28.5878C103.929 28.5878 103.214 28.7642 102.5 28.9407C101.786 29.1172 101.25 29.6466 100.714 30.3525C100.179 31.0584 100 32.1172 100 33.529C100 34.9407 100.179 35.9995 100.714 36.7054C101.25 37.4113 101.786 37.9407 102.5 38.1172C103.214 38.2937 103.929 38.4701 104.464 38.4701C105 38.4701 105.714 38.2937 106.429 38.1172C107.143 37.9407 107.679 37.4113 108.214 36.7054C108.75 35.9995 108.929 34.9407 108.929 33.529C108.929 32.1172 108.75 31.0584 108.214 30.3525C107.679 29.6466 107.143 29.1172 106.429 28.9407C105.893 28.5878 105.179 28.5878 104.464 28.5878ZM128.929 21.3525L134.464 34.4113L139.822 21.3525H149.107L131.25 57.5289H121.964L129.822 43.7642L119.286 21.3525H128.929Z" fill="#1EBBD2"/>
</svg>