<?xml version="1.0" encoding="iso-8859-1"?>
<svg fill="#000000" version="1.1" id="Layer_1" xmlns="http://www.w3.org/2000/svg" xmlns:xlink="http://www.w3.org/1999/xlink" 
	 viewBox="0 0 470 470" xml:space="preserve">
<g>
	<g>
		<g>
			<path d="M467.804,32.197l-30-30C436.396,0.79,434.489,0,432.5,0h-395c-1.989,0-3.897,0.79-5.303,2.197l-30,30
				C0.79,33.603,0,35.511,0,37.5v425c0,4.142,3.358,7.5,7.5,7.5h60c4.142,0,7.5-3.358,7.5-7.5V440h320v22.5
				c0,4.142,3.357,7.5,7.5,7.5h60c4.143,0,7.5-3.358,7.5-7.5v-425C470,35.511,469.21,33.603,467.804,32.197z M128.321,15h205v75
				h-205V15z M395,105v260H75V105H395z M455,455h-45v-22.5c0-4.142-3.357-7.5-7.5-7.5h-335c-4.142,0-7.5,3.358-7.5,7.5V455H15
				V40.606L40.606,15h72.714v75H67.5c-4.142,0-7.5,3.358-7.5,7.5v275c0,4.142,3.358,7.5,7.5,7.5h335c4.143,0,7.5-3.358,7.5-7.5v-275
				c0-4.142-3.357-7.5-7.5-7.5h-54.18V15h81.073L455,40.606V455z"/>
			<path d="M97.5,350h275c4.143,0,7.5-3.358,7.5-7.5c0-4.142-3.357-7.5-7.5-7.5h-54.18v-32.5c0-4.142-3.357-7.5-7.5-7.5h-160
				c-4.142,0-7.5,3.358-7.5,7.5V335H97.5c-4.142,0-7.5,3.358-7.5,7.5C90,346.642,93.358,350,97.5,350z M158.321,310h145v25h-145V310
				z"/>
			<path d="M180.821,180h12.5v22.5c0,4.142,3.358,7.5,7.5,7.5h22.5v32.5c0,4.142,3.358,7.5,7.5,7.5h80c4.143,0,7.5-3.358,7.5-7.5
				c0-4.142-3.357-7.5-7.5-7.5h-72.499v-25h22.499c4.143,0,7.5-3.358,7.5-7.5V180h12.5c4.143,0,7.5-3.358,7.5-7.5v-45
				c0-4.142-3.357-7.5-7.5-7.5s-7.5,3.358-7.5,7.5V165h-85v-37.5c0-4.142-3.358-7.5-7.5-7.5c-4.142,0-7.5,3.358-7.5,7.5v45
				C173.321,176.642,176.679,180,180.821,180z M208.32,180h45v15h-45V180z"/>
			<path d="M295.82,30c-12.406,0-22.5,10.093-22.5,22.5S283.414,75,295.82,75s22.5-10.093,22.5-22.5S308.227,30,295.82,30z
				 M295.82,60c-4.136,0-7.5-3.364-7.5-7.5s3.364-7.5,7.5-7.5s7.5,3.364,7.5,7.5S299.956,60,295.82,60z"/>
			<path d="M150.821,280h160c4.143,0,7.5-3.358,7.5-7.5c0-4.142-3.357-7.5-7.5-7.5h-160c-4.142,0-7.5,3.358-7.5,7.5
				C143.321,276.642,146.679,280,150.821,280z"/>
		</g>
	</g>
</g>
</svg>