<?xml version="1.0" encoding="UTF-8" standalone="no"?>
<svg
   viewBox="0 0 343.08005 340.35372"
   version="1.1"
   id="svg17044"
   width="343.08005"
   height="340.35373"
   xmlns="http://www.w3.org/2000/svg"
   xmlns:svg="http://www.w3.org/2000/svg">
  <defs
     id="defs17048">
    <clipPath
       clipPathUnits="userSpaceOnUse"
       id="clipPath17760">
      <rect
         style="fill:#435352;fill-opacity:1;stroke:none;stroke-width:13.534;stroke-dasharray:none;stroke-opacity:1"
         id="rect17762"
         width="370.18246"
         height="206.02374"
         x="-79.264359"
         y="360.13235" />
    </clipPath>
  </defs>
  <path
     d="m 87.71875,0 c 3.51021,0 6.365234,2.8550248 6.365234,6.3652344 V 45 H 181.35352 V 6.3652344 C 181.35352,2.8550243 184.20758,0 187.71875,0 c 3.51117,0 6.36523,2.8550243 6.36523,6.3652344 V 51.365234 c 0,3.51021 -2.85502,6.365235 -6.36523,6.365235 h -13.30078 l -8.26758,23.255859 c -1.34287,3.776808 -3.02802,6.744141 -6.43164,6.744141 H 144.08594 V 115 h 73.63281 c 3.51021,0 6.36523,2.85502 6.36523,6.36523 0,3.51021 -2.85502,6.36524 -6.36523,6.36524 h -80 c -3.51021,0 -6.36523,-2.85503 -6.36523,-6.36524 V 87.730469 h -15.63477 c -3.40362,0 -5.08877,-2.967333 -6.43164,-6.744141 L 101.01953,57.730469 H 87.71875 c -3.51021,0 -6.365234,-2.855025 -6.365234,-6.365235 V 6.3652344 C 81.353516,2.8550248 84.20854,0 87.71875,0 Z M 113.64648,57.730469 119.40039,75 h 36.63281 l 5.75977,-17.269531 z"
     id="path17042"
     style="fill:#435352;fill-opacity:1;stroke:none" />
  <path
     style="fill:#435352;fill-opacity:1;stroke:#435352;stroke-width:13.934;stroke-linecap:round;stroke-linejoin:round;stroke-dasharray:none;stroke-opacity:1"
     id="path17219"
     d="m 268.89738,368.0589 c 0.76006,2.37128 -99.30344,71.69691 -100.08235,74.06207 -0.77891,2.36515 38.50943,117.58309 36.48908,119.03871 -2.02036,1.45562 -98.87427,-72.28763 -101.36437,-72.29754 -2.49009,-0.01 -99.9280933,72.95982 -101.9367948,71.48816 -2.00870149,-1.47166 38.1957908,-116.37312 37.4357378,-118.7444 -0.760053,-2.37129 -100.268395,-72.49145 -99.489485,-74.8566 0.778909,-2.36516 122.480564,0.36508 124.500919,-1.09054 2.020356,-1.45562 37.958823,-117.762 40.448913,-117.75209 2.4901,0.01 37.50136,116.59876 39.51006,118.07042 2.00871,1.47166 123.72824,-0.28947 124.48829,2.08181 z"
     transform="translate(67.118118,-225.80236)"
     clip-path="url(#clipPath17760)" />
  <path
     style="fill:#ffffff;fill-opacity:1;stroke:#ffffff;stroke-width:13.534;stroke-linecap:round;stroke-linejoin:round;stroke-dasharray:none;stroke-opacity:1"
     id="path17219-6"
     d="m 104.49602,367.64421 13.65578,32.54192 36.74388,4.49041 -26.72933,23.04343 7.08384,36.33312 -30.17541,-18.3003 -32.365829,17.96469 8.079902,-34.35362 -27.087027,-25.23034 35.169068,-2.93141 z"
     transform="translate(65.247882,-227.09199)"
     clip-path="none" />
</svg>
