<?xml version="1.0" encoding="UTF-8" standalone="no"?>
<!-- Created with Inkscape (http://www.inkscape.org/) -->

<svg
   version="1.1"
   id="svg4530"
   width="154.51172"
   height="139.76657"
   viewBox="0 0 154.51173 139.76657"
   xmlns="http://www.w3.org/2000/svg"
   xmlns:svg="http://www.w3.org/2000/svg">
  <defs
     id="defs4534" />
  <path
     id="path6079"
     clip-path="none"
     style="fill:#435352;fill-opacity:1;fill-rule:nonzero;stroke:none;stroke-width:1.33333"
     d="M 54.941406,0.00195313 C 54.363276,0.03300362 53.89859,0.32214466 53.544922,0.68554688 53.02407,1.0944466 52.666016,1.7072231 52.666016,2.5097656 V 41.765625 l 0.01758,-0.164063 c -0.07922,0.354728 -0.05671,0.724456 0.04297,1.097657 0.06814,0.329806 0.193023,0.627863 0.378907,0.882812 l -0.07617,-0.132812 9.765625,21.482422 c 0.05367,0.118069 0.111195,0.221019 0.166016,0.310547 l -0.06055,-0.121094 c 0.318328,0.823358 1.093006,1.476562 2.189453,1.476562 h 1.576172 v 6.578125 c 0,0.71224 0.272554,1.275594 0.710937,1.69336 0.419898,0.450928 0.992546,0.728515 1.712891,0.728515 h 5.576172 v 4.060547 c -1.59839,0.918399 -3.19628,1.836652 -4.794922,2.755859 -2.730983,1.569782 -0.297109,5.760741 2.435547,4.189454 0.786388,-0.45167 1.57279,-0.903656 2.359375,-1.355469 v 3.744141 c -1.598214,0.918725 -3.196535,1.836798 -4.794922,2.755859 -2.730981,1.56978 -0.297115,5.760729 2.435547,4.189453 0.786387,-0.451672 1.57279,-0.903656 2.359375,-1.355469 v 3.742188 c -1.598227,0.918487 -3.196258,1.836631 -4.794922,2.755861 -2.731426,1.57002 -0.297554,5.76293 2.435547,4.1914 0.786803,-0.4519 1.572808,-0.90504 2.359375,-1.35742 v 3.74414 c -1.598227,0.91849 -3.196255,1.83664 -4.794922,2.75586 -2.730984,1.56979 -0.297108,5.76074 2.435547,4.18946 0.832667,-0.47825 1.665186,-0.95713 2.498047,-1.43555 0.405638,2.72951 4.707031,2.67981 4.707031,-0.32617 v -2.37696 c 1.820905,-1.0467 3.641642,-2.09399 5.46289,-3.14062 2.731065,-1.56982 0.296466,-5.76036 -2.4375,-4.18945 -1.009002,0.57953 -2.016895,1.16029 -3.02539,1.74023 v -3.74414 c 1.820826,-1.04667 3.64176,-2.094063 5.46289,-3.140626 2.731062,-1.569828 0.296459,-5.760366 -2.4375,-4.189453 -1.009005,0.579532 -2.016895,1.160288 -3.02539,1.740235 v -3.742188 c 1.820893,-1.046703 3.641637,-2.093997 5.46289,-3.140625 2.731501,-1.57008 0.296905,-5.762561 -2.4375,-4.191406 -1.008935,0.579494 -2.016882,1.160281 -3.02539,1.740234 v -3.742187 c 1.820905,-1.04671 3.641642,-2.093996 5.46289,-3.140625 1.667068,-0.958229 1.309818,-2.775045 0.234375,-3.779297 0.673265,-0.03544 1.238946,-0.274156 1.63086,-0.716797 0.414195,-0.415408 0.671875,-0.962989 0.671875,-1.652344 v -6.578125 h 2.578125 c 0.688832,0 1.242407,-0.246954 1.660156,-0.664062 0.308465,-0.286125 0.540923,-0.651833 0.671875,-1.105469 2.838336,-9.823495 5.698502,-11.900475 8.580075,-21.720703 l 0.004,-0.01563 c 0.0592,-0.149548 0.0996,-0.303244 0.12695,-0.458985 0.0575,-0.273328 0.0739,-0.544732 0.0391,-0.808593 l 0.006,0.09961 v -7.414062 c 0,-0.927445 -0.45654,-1.630173 -1.11718,-2.019532 l 0.0937,0.06641 c 0,0 0.0155,-0.0042 -0.10938,-0.0957 C 85.489026,21.794273 70.931566,11.127565 56.376953,0.4609375 55.926191,0.13056331 55.434759,-0.02454412 54.941406,0.00195313 Z M 101.13281,42.632812 c -5.5e-4,0.0026 5.7e-4,0.0052 0,0.0078 l 0.008,-0.03516 c -0.002,0.0093 -0.006,0.01804 -0.008,0.02734 z M 91.75,65.933594 c -0.0061,0.0056 -0.0075,0.01592 -0.01367,0.02148 l 0.03125,-0.0293 c -0.0045,0.0045 -0.01309,0.0033 -0.01758,0.0078 z m -4.910156,8.894531 c -0.0093,0.0094 -0.0061,0.02788 -0.01563,0.03711 l 0.04687,-0.05078 c -0.0074,0.0086 -0.02375,0.0052 -0.03125,0.01367 z m -19.462891,0.04102 c -0.0087,-0.0093 -0.02662,-0.0061 -0.03516,-0.01563 l 0.04883,0.04883 c -0.0087,-0.008 -0.0051,-0.02504 -0.01367,-0.0332 z M 52.726562,42.699219 c -0.0022,-0.01083 -0.0096,-0.01839 -0.01172,-0.0293 l 0.01367,0.0625 c -0.0032,-0.01131 0.0011,-0.0219 -0.002,-0.0332 z m 0.81836,-42.01367212 c 0.02581,-0.0202614 0.0378,-0.0550395 0.06445,-0.0742188 L 53.5,0.70703125 c 0.01107,-0.0118101 0.0336,-0.009846 0.04492,-0.0214844 z M 57.511719,7.2753906 C 70.452948,16.758929 83.392576,26.243011 96.333984,35.726562 v 4.027344 H 57.511719 Z m 1.318359,37.3222654 h 36.539063 c -2.335058,6.689759 -4.685799,9.778899 -7.044922,17.15625 H 66.626953 Z m 12.681641,22 h 11.154297 v 4.15625 H 71.511719 Z m 8,9 h 2.220703 C 80.992128,76.023304 80.252031,76.449394 79.511719,76.875 Z M 2.421875,105.75391 c -0.6847321,0 -1.2266197,0.2567 -1.63867188,0.66211 C 0.30385536,106.83475 -1.3864369e-8,107.42487 0,108.17578 v 29.16602 c 0,0.93852 0.47385939,1.64176 1.1445312,2.02734 0.3266842,0.21245 0.7380043,0.39749 1.2792969,0.39648 49.6157999,-0.0822 99.2318819,-0.16582 148.8476519,-0.24804 l -0.33984,-0.0801 c 1.4888,0.74355 3.58008,-0.0643 3.58008,-2.0957 v -29.16602 c 0,-0.70492 -0.25443,-1.27141 -0.68555,-1.68945 -0.0101,-0.01 -0.0388,-0.0341 -0.0605,-0.0547 -0.41496,-0.42214 -0.97545,-0.67773 -1.67578,-0.67773 h -49.66796 c -0.35204,0 -0.66261,0.0668 -0.94532,0.18359 l 0.30469,-0.0566 c -0.75186,-0.0152 -1.51099,0.27102 -2.064453,0.99219 -3.379812,4.40356 -6.758972,8.80921 -10.138672,13.21289 h -25.3125 c -3.379701,-4.40368 -6.758482,-8.80882 -10.138672,-13.21289 -0.04961,-0.0645 -0.101136,-0.12121 -0.128906,-0.15235 l 0.07813,0.10352 c -0.392883,-0.63112 -1.080972,-1.07031 -1.986328,-1.07031 z m -1.2773438,33.61523 c -0.00693,-0.005 -0.02049,-0.003 -0.027344,-0.008 l 0.048828,0.0293 c -0.00891,-0.005 -0.012641,-0.0164 -0.021484,-0.0215 z M 0.78320312,106.41602 c 0.008488,-0.007 0.005066,-0.0239 0.0136719,-0.0312 l -0.0507813,0.0469 c 0.009242,-0.009 0.0277229,-0.006 0.0371094,-0.0156 z m 4.06249998,4.18164 H 50.910156 c 3.380285,4.40434 6.760515,8.80892 10.140625,13.21289 0.03898,0.0508 0.07773,0.0951 0.105469,0.12695 l -0.07813,-0.10742 c 0.392314,0.65354 1.092738,1.10156 2.011719,1.10156 h 27.666015 c 0.914804,0 1.611511,-0.44455 2.003907,-1.0918 l -0.07813,0.10547 c 0.02176,-0.0249 0.07229,-0.0795 0.113281,-0.13281 3.38035,-4.40429 6.760346,-8.81043 10.140628,-13.21484 h 46.73047 v 24.07617 c -48.27335,0.0812 -96.546992,0.16094 -144.8203169,0.24219 z" />
</svg>
