<svg viewBox="0 0 512.003 512.003" xmlns="http://www.w3.org/2000/svg"><path d="M85.337 358.402c-14.142 0-25.6 11.458-25.6 25.6 0 14.142 11.458 25.6 25.6 25.6 14.142 0 25.6-11.458 25.6-25.6 0-14.142-11.458-25.6-25.6-25.6zm0 34.133a8.529 8.529 0 01-8.533-8.533 8.529 8.529 0 018.533-8.533 8.528 8.528 0 018.533 8.533 8.529 8.529 0 01-8.533 8.533zM153.603 358.402c-14.142 0-25.6 11.458-25.6 25.6 0 14.142 11.458 25.6 25.6 25.6 14.142 0 25.6-11.458 25.6-25.6 0-14.142-11.457-25.6-25.6-25.6zm0 34.133a8.528 8.528 0 01-8.533-8.533 8.529 8.529 0 018.533-8.533 8.529 8.529 0 018.533 8.533 8.527 8.527 0 01-8.533 8.533zM221.87 358.402c-14.142 0-25.6 11.458-25.6 25.6 0 14.142 11.458 25.6 25.6 25.6 14.142 0 25.6-11.458 25.6-25.6 0-14.142-11.458-25.6-25.6-25.6zm0 34.133a8.528 8.528 0 01-8.533-8.533 8.529 8.529 0 018.533-8.533 8.529 8.529 0 018.533 8.533 8.528 8.528 0 01-8.533 8.533zM290.137 358.402c-14.142 0-25.6 11.458-25.6 25.6 0 14.142 11.458 25.6 25.6 25.6 14.142 0 25.6-11.458 25.6-25.6 0-14.142-11.458-25.6-25.6-25.6zm0 34.133a8.529 8.529 0 01-8.533-8.533 8.529 8.529 0 018.533-8.533 8.529 8.529 0 018.533 8.533 8.529 8.529 0 01-8.533 8.533zM358.403 358.402c-14.142 0-25.6 11.458-25.6 25.6 0 14.142 11.458 25.6 25.6 25.6 14.142 0 25.6-11.458 25.6-25.6 0-14.142-11.457-25.6-25.6-25.6zm0 34.133a8.529 8.529 0 01-8.533-8.533 8.529 8.529 0 018.533-8.533 8.529 8.529 0 018.533 8.533 8.527 8.527 0 01-8.533 8.533zM426.67 358.402c-14.142 0-25.6 11.458-25.6 25.6 0 14.142 11.458 25.6 25.6 25.6 14.142 0 25.6-11.458 25.6-25.6 0-14.142-11.458-25.6-25.6-25.6zm0 34.133a8.529 8.529 0 01-8.533-8.533 8.529 8.529 0 018.533-8.533 8.529 8.529 0 018.533 8.533 8.528 8.528 0 01-8.533 8.533z"/><path d="M503.47 68.268a8.533 8.533 0 008.533-8.533v-51.2A8.533 8.533 0 00503.47.002H8.537A8.533 8.533 0 00.004 8.535v51.2a8.533 8.533 0 008.533 8.533h25.6v205.204c-9.724 1.91-17.067 10.476-17.067 20.758v30.306C7.405 326.052 0 334.39 0 344.475v79.053c0 11.158 9.054 20.207 20.215 20.207h5.388v51.2H8.537a8.533 8.533 0 00-8.533 8.533 8.533 8.533 0 008.533 8.533H503.47a8.533 8.533 0 008.533-8.533 8.533 8.533 0 00-8.533-8.533h-17.067v-51.2h5.39c11.162 0 20.207-9.049 20.207-20.207v-79.053c0-10.086-7.399-18.425-17.063-19.938v-30.306c0-10.282-7.342-18.849-17.067-20.758V68.268zM17.07 51.202V17.068h477.867v34.133H17.07zm187.733 153.6h102.4v68.267h-102.4zm119.467 34.133h34.133v8.533a8.533 8.533 0 008.533 8.533 8.533 8.533 0 008.533-8.533v-34.133a8.533 8.533 0 00-17.066 0v8.533H324.27v-25.6a8.533 8.533 0 00-8.533-8.533H196.27a8.533 8.533 0 00-8.533 8.533v25.6h-34.133v-8.533a8.533 8.533 0 00-17.066 0v34.133a8.533 8.533 0 008.533 8.533 8.533 8.533 0 008.533-8.533v-8.533h34.133v34.133h-85.333v-204.8h110.933v25.6a8.533 8.533 0 008.533 8.533h8.533v17.067c0 11.149 7.123 20.625 17.067 24.138v18.528a8.533 8.533 0 008.533 8.533 8.533 8.533 0 008.533-8.533v-18.528c9.943-3.514 17.067-12.989 17.067-24.138v-17.067h8.533a8.533 8.533 0 008.533-8.533v-25.6h110.933v204.8H324.27zm-68.267-110.933a8.529 8.529 0 01-8.533-8.533v-17.067h17.067v17.067a8.529 8.529 0 01-8.534 8.533zm17.067-42.667H230.404V68.268h51.2v17.067zM85.337 68.268v204.8H51.203v-204.8zm-51.2 225.963a4.1 4.1 0 014.096-4.096h435.543a4.1 4.1 0 014.096 4.096v30.037H34.137zm8.533 200.704v-51.2h34.133v51.2zm375.467-51.2v51.2H93.87v-51.2zm51.2 51.2h-34.133v-51.2h34.133zm25.596-71.407a3.14 3.14 0 01-3.14 3.14H20.215a3.148 3.148 0 01-3.149-3.14v-79.053c0-1.73 1.411-3.14 3.149-3.14h471.578a3.14 3.14 0 013.14 3.14zm-34.13-150.46H426.67v-204.8h34.133z"/></svg>