<?xml version="1.0" encoding="UTF-8" standalone="no"?>
<svg
   id="svglogo"
   width="88.194"
   height="88.075066"
   viewBox="0 0 88.193998 88.075066"
   version="1.1"
   xmlns="http://www.w3.org/2000/svg"
   xmlns:svg="http://www.w3.org/2000/svg">
  <defs
     id="defs858" />
  <path
     id="simple1nobackGear"
     data-name="Path 1"
     d="m 84.540901,49.130024 -3.694002,-1.468 v -7.1 l 3.694002,-1.468 c 3.600002,-1.421 3.694002,-1.468 3.646002,-1.847 -0.047,-0.189 -0.189,-0.947 -0.331,-1.752 a 27.983015,27.983 0 0 0 -1.184,-4.452 c -0.095,-0.095 -6.109004,0.237 -7.435004,0.379 l -0.521001,0.047 -0.663,-1.61 c -0.379,-0.852 -1.089001,-2.273 -1.563001,-3.126 l -0.852,-1.563 0.331,-0.331 c 0.189,-0.189 1.373001,-1.563 2.700001,-2.983 1.610001,-1.752 2.320002,-2.6 2.273002,-2.747 -0.047,-0.095 -0.568001,-0.758 -1.089001,-1.468 a 25.707014,25.707 0 0 0 -3.031002,-3.5 c -0.189,-0.095 -0.947,0.284 -3.646002,1.752 l -3.410002,1.894 -1.137,-0.947 a 43.691024,43.691 0 0 0 -4.073002,-3.078 0.42700023,0.427 0 0 1 -0.284,-0.284 c 0,-0.047 0.521,-1.847 1.137,-3.8829998 0.852001,-2.841 1.089001,-3.789 0.947001,-3.836 a 43.300023,43.3 0 0 0 -6.062004,-2.841 c 0,0 -1.042,1.459 -2.276001,3.259 -1.234001,1.8 -2.270001,3.22 -2.270001,3.27 a 10.127005,10.127 0 0 1 -1.610001,-0.474 32.780018,32.78 0 0 0 -3.410002,-0.805 c -0.994,-0.189 -1.847001,-0.331 -1.894001,-0.331 -0.047,0 -0.284,-1.752 -0.663,-3.883 l -0.616001,-3.83600003 -0.758,-0.047 a 53.139029,53.139 0 0 0 -5.493003,0 l -0.758,0.047 -0.615001,3.82900003 c -0.331,2.131 -0.616,3.883 -0.663,3.883 -0.047,0 -0.852,0.189 -1.894001,0.331 a 27.459015,27.459 0 0 0 -3.410002,0.805 c -0.852,0.237 -1.610001,0.474 -1.610001,0.474 0,0 -1.042,-1.468 -2.273001,-3.268 -1.279001,-1.752 -2.273001,-3.268 -2.273001,-3.268 a 53.024029,53.024 0 0 0 -6.062003,2.843 c -0.095,0.047 0.095,0.947 0.947,3.836 0.616,2.0359998 1.137001,3.7889998 1.137001,3.8829998 a 0.42700023,0.427 0 0 1 -0.284,0.284 51.000028,51 0 0 0 -4.073003,3.078 l -1.137,0.947 -3.362002,-1.894 c -1.894001,-1.034 -3.410002,-1.89 -3.556002,-1.89 -0.284,0 -2.5100011,2.6 -3.9310021,4.641 l -0.379,0.568 2.420001,2.557 c 1.3260011,1.421 2.5100011,2.747 2.7000011,2.889 l 0.332001,0.331 -0.854001,1.47 c -0.474,0.805 -1.137,2.226 -1.563001,3.126 l -0.6630001,1.657 -0.521,-0.047 c -1.326001,-0.189 -7.293004,-0.474 -7.435004,-0.379 a 29.391016,29.391 0 0 0 -1.18400105,4.452 c -0.189,0.805 -0.284,1.61 -0.332,1.752 -0.047,0.331 0,0.331 3.64600205,1.847 l 3.694002,1.468 v 7.1 l -3.694002,1.468 c -3.60000205,1.421 -3.69400205,1.468 -3.64600205,1.847 0.047,0.189 0.189,0.947 0.332,1.752 a 27.982015,27.982 0 0 0 1.18400105,4.452 c 0.095,0.095 5.872003,-0.189 7.435004,-0.331 l 0.521,-0.047 0.6630001,1.61 a 32.050017,32.05 0 0 0 1.563001,3.126 l 0.852001,1.563 -0.332001,0.331 c -0.189,0.189 -1.373,1.563 -2.7000011,2.983 -1.610001,1.752 -2.320001,2.6 -2.273001,2.747 0.047,0.095 0.568,0.758 1.089,1.468 a 25.706014,25.706 0 0 0 3.0310021,3.5 c 0.189,0.095 0.947,-0.284 3.646002,-1.752 l 3.412002,-1.893 1.137,0.947 a 43.691024,43.691 0 0 0 4.073003,3.078 0.42700023,0.427 0 0 1 0.284,0.284 c 0,0.047 -0.521001,1.847 -1.137001,3.883 -0.852,2.841 -1.089,3.789 -0.947,3.836 0.095,0.047 0.9,0.474 1.847001,0.947 a 25.538014,25.538 0 0 0 4.262002,1.847 c 0.663,-1.089 4.167002,-5.92 4.357002,-6.156 l 0.237,-0.284 0.900001,0.284 a 43.489023,43.489 0 0 0 4.925002,1.089 l 0.900001,0.189 0.189,0.852 c 0.047,0.474 0.331,2.226 0.616001,3.883 l 0.521,3.031 0.616,0.047 v 0 a 54.059029,54.059 0 0 0 5.541003,0 l 0.758,-0.047 0.521001,-3.031 c 0.284,-1.657 0.568,-3.41 0.616,-3.883 l 0.189,-0.852 0.900001,-0.189 c 1.421,-0.237 3.836002,-0.805 4.925002,-1.089 l 0.900001,-0.284 0.237,0.284 c 0.189,0.237 3.646002,5.067 4.357002,6.156 0.095,0.189 2.178001,-0.758 4.452003,-1.894 1.373,-0.663 1.752001,-0.947 1.752001,-1.137 0,-0.19 -0.568001,-1.847 -1.137001,-3.836 l -1.089001,-3.6 0.284001,-0.237 c 1.752001,-1.279 3.126001,-2.32 4.073002,-3.126 l 1.137,-0.947 3.410002,1.894 c 2.700002,1.468 3.500002,1.894 3.646002,1.752 a 29.663016,29.663 0 0 0 3.031002,-3.5 c 0.521,-0.758 1.042,-1.373 1.089,-1.468 a 13.049007,13.049 0 0 0 -2.273001,-2.747 c -1.326001,-1.421 -2.510001,-2.747 -2.700001,-2.983 l -0.331,-0.331 0.852,-1.563 c 0.474,-0.852 1.137001,-2.273 1.563001,-3.126 l 0.663,-1.61 0.521001,0.047 a 67.534036,67.534 0 0 0 7.435004,0.331 29.393016,29.393 0 0 0 1.184,-4.452 c 0.189,-0.805 0.284,-1.61 0.332,-1.752 0.186,-0.137 0.091,-0.186 -3.508002,-1.654 z m -13.686007,-0.568 a 26.369014,26.369 0 0 1 -7.100004,13.97 24.764013,24.764 0 0 1 -4.830002,4.073 28.100015,28.1 0 0 1 -11.176006,4.167 v 0 a 45.367024,45.367 0 0 1 -5.067003,0.237 27.231015,27.231 0 0 1 -13.312007,-4.362 23.449013,23.449 0 0 1 -4.830003,-4.073 25.546014,25.546 0 0 1 -4.073002,-5.446 26.429014,26.429 0 0 1 -2.226001,-20.742 25.600014,25.6 0 0 1 6.300003,-10.561 27.450015,27.45 0 0 1 39.400021,0 26.369014,26.369 0 0 1 7.100004,13.97 36.018019,36.018 0 0 1 -0.186,8.766 z"
     fill="#435352"
     style="stroke:none" />
</svg>
