<?xml version="1.0" encoding="UTF-8" standalone="no"?>
<!-- Uploaded to: SVG Repo, www.svgrepo.com, Generator: SVG Repo Mixer Tools -->

<svg
   fill="#000000"
   version="1.1"
   id="Layer_1"
   viewBox="0 0 496 496"
   xml:space="preserve"
   sodipodi:docname="artificial-intelligence-svgrepo-com.svg"
   inkscape:version="1.1.2 (0a00cf5339, 2022-02-04)"
   xmlns:inkscape="http://www.inkscape.org/namespaces/inkscape"
   xmlns:sodipodi="http://sodipodi.sourceforge.net/DTD/sodipodi-0.dtd"
   xmlns="http://www.w3.org/2000/svg"
   xmlns:svg="http://www.w3.org/2000/svg"><defs
   id="defs4170">
	

		
	
			
			
			
			
			
			
			
			
			
			
			
			
			
			
			
			
			
			
			
			
			
			
			
			
			
			
		</defs><sodipodi:namedview
   id="namedview4168"
   pagecolor="#ffffff"
   bordercolor="#111111"
   borderopacity="1"
   inkscape:pageshadow="0"
   inkscape:pageopacity="0"
   inkscape:pagecheckerboard="1"
   showgrid="false"
   inkscape:zoom="1.0250197"
   inkscape:cx="32.194503"
   inkscape:cy="284.38478"
   inkscape:window-width="1920"
   inkscape:window-height="1080"
   inkscape:window-x="0"
   inkscape:window-y="0"
   inkscape:window-maximized="1"
   inkscape:current-layer="Layer_1" />
<g
   id="g4336"><path
     d="M 40,449.472 V 364.28 L 58.424,352 H 88 V 336 H 53.576 L 24,355.72 v 93.752 C 14.704,452.784 8,461.584 8,472 c 0,13.232 10.768,24 24,24 13.232,0 24,-10.768 24,-24 0,-10.416 -6.712,-19.216 -16,-22.528 z M 32,480 c -4.416,0 -8,-3.584 -8,-8 0,-4.416 3.584,-8 8,-8 4.416,0 8,3.584 8,8 0,4.416 -3.584,8 -8,8 z"
     id="path4109" /><path
     d="M 46.528,320 H 88 V 304 H 46.528 C 43.216,294.712 34.416,288 24,288 10.768,288 0,298.768 0,312 c 0,13.232 10.768,24 24,24 10.416,0 19.216,-6.712 22.528,-16 z M 16,312 c 0,-4.416 3.584,-8 8,-8 4.416,0 8,3.584 8,8 0,4.416 -3.584,8 -8,8 -4.416,0 -8,-3.584 -8,-8 z"
     id="path4111" /><path
     d="m 24,272 c 10.416,0 19.216,-6.712 22.528,-16 H 88 V 240 H 46.528 C 43.216,230.704 34.416,224 24,224 10.768,224 0,234.768 0,248 c 0,13.232 10.768,24 24,24 z m 0,-32 c 4.416,0 8,3.584 8,8 0,4.416 -3.584,8 -8,8 -4.416,0 -8,-3.584 -8,-8 0,-4.416 3.584,-8 8,-8 z"
     id="path4113" /><rect
     x="56"
     y="272"
     width="32"
     height="16"
     id="rect4115" /><rect
     x="56"
     y="208"
     width="32"
     height="16"
     id="rect4117" /><rect
     y="176"
     width="88"
     height="16"
     id="rect4119"
     x="0" /><path
     d="M 60.688,160 H 88 V 144 H 67.312 L 48,124.688 v -14.16 C 57.288,107.216 64,98.416 64,88 64,74.768 53.232,64 40,64 26.768,64 16,74.768 16,88 c 0,10.416 6.704,19.216 16,22.528 v 20.784 z M 40,80 c 4.416,0 8,3.584 8,8 0,4.416 -3.584,8 -8,8 -4.416,0 -8,-3.584 -8,-8 0,-4.416 3.584,-8 8,-8 z"
     id="path4121" /><polygon
     points="0,48 124.688,48 144,67.312 144,88 160,88 160,60.688 131.312,32 0,32 "
     id="polygon4123" /><polygon
     points="0,16 156.688,16 176,35.312 176,88 192,88 192,28.688 163.312,0 0,0 "
     id="polygon4125" /><rect
     x="208"
     y="56"
     width="16"
     height="32"
     id="rect4127" /><rect
     x="304"
     width="16"
     height="88"
     id="rect4129"
     y="0" /><path
     d="M 240,46.528 V 88 h 16 V 59.312 l 16,16 V 88 h 16 V 68.688 L 262.392,43.08 C 268.192,38.696 272,31.816 272,24 272,10.768 261.232,0 248,0 c -13.232,0 -24,10.768 -24,24 0,10.416 6.704,19.216 16,22.528 z M 248,16 c 4.416,0 8,3.584 8,8 0,4.416 -3.584,8 -8,8 -4.416,0 -8,-3.584 -8,-8 0,-4.416 3.584,-8 8,-8 z"
     id="path4131" /><path
     d="M 352,51.312 371.312,32 h 78.16 c 2.416,6.776 7.752,12.112 14.528,14.528 v 110.16 L 444.688,176 H 408 v 16 h 43.312 L 480,163.312 V 46.528 C 489.288,43.216 496,34.416 496,24 496,10.768 485.232,0 472,0 461.584,0 452.784,6.712 449.472,16 H 364.688 L 336,44.688 V 88 h 16 z M 472,16 c 4.416,0 8,3.584 8,8 0,4.416 -3.584,8 -8,8 -4.416,0 -8,-3.584 -8,-8 0,-4.416 3.584,-8 8,-8 z"
     id="path4133" /><path
     d="m 414.08,97.392 17.92,17.92 v 9.376 L 412.688,144 H 408 v 16 h 11.312 L 448,131.312 V 108.688 L 419.312,80 h -4.784 C 411.216,70.712 402.416,64 392,64 c -13.232,0 -24,10.768 -24,24 0,13.232 10.768,24 24,24 9.904,0 18.416,-6.032 22.08,-14.608 z M 392,96 c -4.416,0 -8,-3.584 -8,-8 0,-4.416 3.584,-8 8,-8 4.416,0 8,3.584 8,8 0,4.416 -3.584,8 -8,8 z"
     id="path4135" /><rect
     x="408"
     y="208"
     width="88"
     height="16"
     id="rect4137" /><path
     d="M 480,449.472 V 268.688 L 451.312,240 H 408 v 16 h 36.688 L 464,275.312 v 41.376 L 451.312,304 H 408 v 16 h 36.688 L 464,339.312 v 110.16 c -9.296,3.312 -16,12.112 -16,22.528 0,13.232 10.768,24 24,24 13.232,0 24,-10.768 24,-24 0,-10.416 -6.712,-19.216 -16,-22.528 z M 472,480 c -4.416,0 -8,-3.584 -8,-8 0,-4.416 3.584,-8 8,-8 4.416,0 8,3.584 8,8 0,4.416 -3.584,8 -8,8 z"
     id="path4139" /><rect
     x="408"
     y="272"
     width="32"
     height="16"
     id="rect4141" /><path
     d="M 448,364.688 419.312,336 H 408 v 16 h 4.688 L 432,371.312 V 416 h -80 v -8 h -16 v 24 h 96 v 12.688 L 412.688,464 h -14.16 c -3.312,-9.288 -12.112,-16 -22.528,-16 -13.232,0 -24,10.768 -24,24 0,13.232 10.768,24 24,24 10.416,0 19.216,-6.712 22.528,-16 h 20.784 L 448,451.312 Z M 376,480 c -4.416,0 -8,-3.584 -8,-8 0,-4.416 3.584,-8 8,-8 4.416,0 8,3.584 8,8 0,4.416 -3.584,8 -8,8 z"
     id="path4143" /><path
     d="m 160,408 h -16 v 8 H 102.528 C 99.216,406.712 90.416,400 80,400 c -13.232,0 -24,10.768 -24,24 0,13.232 10.768,24 24,24 10.416,0 19.216,-6.712 22.528,-16 H 160 Z m -80,24 c -4.416,0 -8,-3.584 -8,-8 0,-4.416 3.584,-8 8,-8 4.416,0 8,3.584 8,8 0,4.416 -3.584,8 -8,8 z"
     id="path4145" /><rect
     x="304"
     y="408"
     width="16"
     height="88"
     id="rect4147" /><rect
     x="272"
     y="408"
     width="16"
     height="88"
     id="rect4149" /><path
     d="m 240,420.688 -16,16 V 408 h -16 v 41.472 c -9.296,3.312 -16,12.112 -16,22.528 0,13.232 10.768,24 24,24 13.232,0 24,-10.768 24,-24 0,-7.816 -3.808,-14.696 -9.608,-19.08 L 256,427.312 V 408 H 240 Z M 216,480 c -4.416,0 -8,-3.584 -8,-8 0,-4.416 3.584,-8 8,-8 4.416,0 8,3.584 8,8 0,4.416 -3.584,8 -8,8 z"
     id="path4151" /><polygon
     points="168,459.312 192,435.312 192,408 176,408 176,428.688 152,452.688 152,496 168,496 "
     id="polygon4153" /><path
     d="m 336,392 h 16 v -16 h 24 v -24 h 16 v -16 h -16 v -16 h 16 v -16 h -16 v -16 h 16 v -16 h -16 v -16 h 16 v -16 h -16 v -16 h 16 v -16 h -16 v -16 h 16 v -16 h -16 v -16 h 16 v -16 h -16 v -24 h -24 v -16 h -16 v 16 h -16 v -16 h -16 v 16 h -16 v -16 h -16 v 16 h -16 v -16 h -16 v 16 h -16 v -16 h -16 v 16 h -16 v -16 h -16 v 16 h -16 v -16 h -16 v 16 h -3.312 L 120,140.688 V 144 h -16 v 16 h 16 v 16 h -16 v 16 h 16 v 16 h -16 v 16 h 16 v 16 h -16 v 16 h 16 v 16 h -16 v 16 h 16 v 16 h -16 v 16 h 16 v 16 h -16 v 16 h 16 v 24 h 24 v 16 h 16 v -16 h 16 v 16 h 16 v -16 h 16 v 16 h 16 v -16 h 16 v 16 h 16 v -16 h 16 v 16 h 16 v -16 h 16 v 16 h 16 v -16 h 16 z M 136,360 V 147.312 L 147.312,136 H 360 v 224 z"
     id="path4155" /><path
     d="m 318.888,211.048 13.96,-13.96 -33.936,-33.936 -13.96,13.96 c -4.16,-2.184 -8.488,-3.976 -12.952,-5.384 V 152 h -48 v 19.728 c -4.472,1.408 -8.8,3.2 -12.952,5.384 l -13.96,-13.96 -33.936,33.936 13.96,13.96 c -2.176,4.16 -3.976,8.488 -5.384,12.952 H 152 v 48 h 19.728 c 1.408,4.472 3.2,8.8 5.384,12.952 l -13.96,13.96 33.936,33.936 13.96,-13.96 c 4.16,2.176 8.48,3.976 12.952,5.384 V 344 h 48 v -19.728 c 4.472,-1.408 8.8,-3.2 12.952,-5.384 l 13.96,13.96 33.936,-33.936 -13.96,-13.96 c 2.176,-4.152 3.976,-8.48 5.384,-12.952 H 344 v -48 h -19.728 c -1.408,-4.472 -3.2,-8.8 -5.384,-12.952 z M 328,256 h -16.224 l -1.416,6.224 c -1.6,7.016 -4.368,13.672 -8.216,19.792 l -3.408,5.408 11.496,11.496 -11.312,11.312 -11.496,-11.496 -5.408,3.408 c -6.12,3.848 -12.776,6.616 -19.792,8.216 L 256,311.776 V 328 h -16 v -16.224 l -6.224,-1.416 c -7.016,-1.6 -13.672,-4.368 -19.792,-8.216 l -5.408,-3.408 -11.496,11.496 -11.312,-11.312 11.496,-11.496 -3.408,-5.408 c -3.848,-6.12 -6.616,-12.776 -8.216,-19.792 L 184.224,256 H 168 v -16 h 16.224 l 1.416,-6.224 c 1.6,-7.016 4.368,-13.672 8.216,-19.792 l 3.408,-5.408 -11.496,-11.496 11.312,-11.312 11.496,11.488 5.408,-3.408 c 6.12,-3.848 12.776,-6.616 19.792,-8.216 L 240,184.224 V 168 h 16 v 16.224 l 6.224,1.416 c 7.016,1.6 13.672,4.368 19.792,8.216 l 5.408,3.408 11.496,-11.488 11.312,11.312 -11.496,11.496 3.408,5.408 c 3.848,6.12 6.616,12.776 8.216,19.792 L 311.776,240 H 328 Z"
     id="path4157" /><path
     d="m 248,208 c -22.056,0 -40,17.944 -40,40 0,22.056 17.944,40 40,40 22.056,0 40,-17.944 40,-40 0,-22.056 -17.944,-40 -40,-40 z m 0,64 c -13.232,0 -24,-10.768 -24,-24 0,-13.232 10.768,-24 24,-24 13.232,0 24,10.768 24,24 0,13.232 -10.768,24 -24,24 z"
     id="path4159" /></g>
</svg>
