<svg viewBox="0 0 512 512" xmlns="http://www.w3.org/2000/svg"><path d="M320.688 18.03l92.593 338.345-22.436-22.594 25.72 71.97-42.69-43.03 21 54.374-36.5-16.844 43.75 45.656c-77.97-7.228-136.785-18.17-168.155-30.5-9.618-3.78-16.558-7.725-20.407-10.97-7.229-6.093-2.335-9.866 2.187-13.436 5.071-4.004 13.66-8.693 25.625-13.47 31.35-12.516 60.263-30.466 79.72-51.592 19.456-21.125 29.837-47.338 18.936-72.032-10.9-24.694-40.153-44.757-92.592-59.97-51.09-14.822-125.125-25.017-229.438-27.874v91.657c90.296-11.75 157.054.837 186.844 18.874 7.876 4.769 20.205 13.447 18.156 23.499-1.265 6.206-10.632 16.232-33.97 24.156-23.177 7.87-40.604 16.241-53.155 25.406-12.55 9.164-20.63 19.486-22.656 31.188-2.027 11.702 2.723 23.243 11.124 32.656 8.4 9.413 20.49 17.576 35.687 25.03 53.415 26.202 146.467 43.786 252.97 42.876 8.33 2.395 18.37 3.78 29.188 3.78 25.304.002 46.376-7.634 51.093-17.78v-8.594c-2.69-5.796-10.705-10.79-21.81-14l20.31-46.843-31.967 17.874 6.312-55.625-19.97 38.217-4.5-68.968-8.124 30.06-93.436-341.5h-19.406z"/></svg>