<?xml version="1.0" encoding="UTF-8" standalone="no"?>
<!-- Created with Inkscape (http://www.inkscape.org/) -->

<svg
   version="1.1"
   id="svg11545"
   width="147.96272"
   height="142.82811"
   viewBox="0 0 147.96272 142.82812"
   sodipodi:docname="Lasercutter icon.ai"
   inkscape:export-filename="../workspace/otg-website/content/workspace/logos/lasercutter.svg"
   inkscape:export-xdpi="96"
   inkscape:export-ydpi="96"
   inkscape:version="0.0"
   xmlns:inkscape="http://www.inkscape.org/namespaces/inkscape"
   xmlns:sodipodi="http://sodipodi.sourceforge.net/DTD/sodipodi-0.dtd"
   xmlns="http://www.w3.org/2000/svg"
   xmlns:svg="http://www.w3.org/2000/svg">
  <defs
     id="defs11549">
    <inkscape:path-effect
       effect="offset"
       id="path-effect16434"
       is_visible="true"
       lpeversion="1.2"
       linejoin_type="miter"
       unit="mm"
       offset="0.2"
       miter_limit="4"
       attempt_force_join="false"
       update_on_knot_move="true" />
  </defs>
  <sodipodi:namedview
     id="namedview11547"
     pagecolor="#ffffff"
     bordercolor="#111111"
     borderopacity="1"
     inkscape:showpageshadow="0"
     inkscape:pageopacity="0"
     inkscape:pagecheckerboard="1"
     inkscape:deskcolor="#d1d1d1"
     showgrid="false"
     inkscape:zoom="3.4596652"
     inkscape:cx="10.839199"
     inkscape:cy="59.687857"
     inkscape:window-width="1920"
     inkscape:window-height="1080"
     inkscape:window-x="0"
     inkscape:window-y="0"
     inkscape:window-maximized="1"
     inkscape:current-layer="svg11545" />
  <path
     id="path12922"
     style="fill:#435352;fill-opacity:1;fill-rule:nonzero;stroke:none;stroke-width:1.33333"
     d="m 4.6171875,0 c -3.1508759,0 -3.1508759,4.8457031 0,4.8457031 H 143.54883 C 146.6997,4.8457031 146.6997,0 143.54883,0 Z M 51.662109,11.011719 c -0.695348,0 -1.251435,0.250949 -1.666015,0.667969 -0.0053,0.005 -0.01962,0.01587 -0.02148,0.01758 l -0.02539,0.02344 -0.02344,0.02539 c -0.0017,0.0018 -0.01259,0.01618 -0.01758,0.02148 -0.417022,0.414582 -0.667969,0.970669 -0.667969,1.666016 v 2.853515 c -14.83082,0.04192 -29.661823,0.08717 -44.4921871,0.128907 -3.1502899,0.0078 -3.1466351,4.851567 0.00391,4.84375 14.8294029,-0.04173 29.6588389,-0.08509 44.4882809,-0.126954 v 21.861329 c 0,0.695347 0.250951,1.251435 0.667969,1.666015 0.005,0.0053 0.01588,0.01962 0.01758,0.02148 l 0.02344,0.02539 0.02539,0.02344 c 0.0065,0.006 0.0364,0.03604 0.07031,0.06445 l -0.04883,-0.04687 c 0.413126,0.415559 0.968413,0.669922 1.666015,0.669922 h 5.957032 l 13.77539,18.324219 0.05273,0.04883 c 0.06562,0.05942 0.14371,0.09096 0.21289,0.142578 v 38.169926 c 0,3.15087 4.845703,3.15087 4.845703,0 V 62.792969 l 13.410157,-17.375 h 6.523437 c 0.702576,0 1.262256,-0.259021 1.675781,-0.679688 l -0.05273,0.04883 c 0.04851,-0.04072 0.03906,-0.0332 0.03906,-0.0332 l 0.02539,-0.02344 0.02344,-0.02539 c 0.0093,-0.0099 0.03214,-0.0344 0.05078,-0.05469 v -0.002 c 0.40744,-0.411049 0.660156,-0.962095 0.660156,-1.654297 V 21.191406 c 14.896892,-0.04314 29.792382,-0.08777 44.689452,-0.130859 3.15156,-0.0098 3.1475,-4.855471 -0.004,-4.845703 -14.89569,0.04308 -29.79004,0.08961 -44.685552,0.132812 v -2.914062 c 0,-0.692202 -0.252713,-1.243248 -0.660156,-1.654297 -0.0191,-0.02081 -0.0413,-0.04657 -0.05078,-0.05664 l -0.02344,-0.02539 -0.02539,-0.02344 c 0,0 0.0073,0.0064 -0.03711,-0.03125 l 0.05078,0.04687 c -0.414955,-0.422122 -0.975446,-0.677734 -1.675781,-0.677734 z m 2.421875,4.84375 H 94.015625 V 40.572266 H 54.083984 Z m 9.566407,29.5625 h 20.18164 L 73.607422,58.662109 Z M 29.574219,72.269531 c -0.366344,0 -0.675793,0.100384 -0.966797,0.228516 -1.063802,-0.137517 -2.222646,0.223263 -2.712891,1.474609 L 0.171875,139.68945 c -0.47832056,1.22058 0.0992215,2.24231 1.0214844,2.72071 0.3394613,0.22944 0.7213543,0.41796 1.2871094,0.41796 H 145.48047 c 0.56575,0 0.94764,-0.18851 1.28711,-0.41796 0.92162,-0.47804 1.50213,-1.49917 1.02344,-2.72071 -8.57467,-21.90531 -17.15061,-43.811565 -25.72657,-65.716794 -0.0543,-0.138894 -0.11823,-0.250078 -0.18164,-0.357422 -0.34696,-0.759939 -1.09285,-1.345703 -2.1289,-1.345703 H 83.226562 c -3.150288,0 -3.150288,4.84375 0,4.84375 h 34.884768 c 7.9426,20.28948 15.8844,40.580399 23.82812,60.871099 H 6.0234375 C 13.966016,117.69371 21.907024,97.40274 29.849609,77.113281 h 36.253907 c 3.150289,0 3.150289,-4.84375 0,-4.84375 z m 92.308591,1.345703 c 0.002,0.0038 0.006,0.006 0.008,0.0098 l -0.0488,-0.08984 c 0.0142,0.02267 0.0268,0.05599 0.041,0.08008 z m 24.88477,68.794926 c -0.0174,0.009 -0.0214,0.0324 -0.0391,0.041 l 0.10156,-0.0605 c -0.0162,0.0113 -0.0461,0.008 -0.0625,0.0195 z m -145.5742206,0 c -0.016425,-0.0111 -0.046327,-0.008 -0.0625,-0.0195 l 0.1015625,0.0605 c -0.01767,-0.009 -0.021643,-0.032 -0.039063,-0.041 z M 34.921875,91.626953 c -0.913311,0.0506 -1.81336,0.569544 -2.195313,1.634766 C 28.278576,105.67369 23.828867,118.08665 19.380859,130.5 c -0.385438,1.07569 0.003,1.98041 0.746094,2.52539 4.46e-4,4e-4 0.0015,-4e-4 0.002,0 0.410453,0.36936 0.926028,0.5957 1.570313,0.5957 h 22.109375 l -0.08789,-0.006 c 0.886269,0.10487 1.737559,-0.25991 2.242188,-1.22656 2.388375,-4.57364 4.776495,-9.14446 7.164062,-13.71679 h 15.996094 c 3.077213,4.59586 6.15532,9.19113 9.232422,13.7871 0.05722,0.0854 0.115893,0.15597 0.173828,0.22461 5.39e-4,7.5e-4 0.0014,0.001 0.002,0.002 0.406199,0.5594 1.052345,0.93554 1.890625,0.93554 h 49.916015 c 0.6136,0 1.10002,-0.21517 1.49805,-0.54687 0.81129,-0.51907 1.2692,-1.48512 0.80859,-2.60547 -4.09202,-9.96671 -8.18597,-19.93315 -12.2793,-29.89844 -0.0453,-0.1104 -0.098,-0.20141 -0.15039,-0.29297 -0.33524,-0.784951 -1.09385,-1.398434 -2.15429,-1.398434 H 83.226562 c -3.150289,0 -3.150289,4.843754 0,4.843754 h 33.222658 c 3.42914,8.3517 6.85896,16.70207 10.28906,25.05273 H 81.714844 c -3.077051,-4.59542 -6.156763,-9.19098 -9.234375,-13.78711 -0.04359,-0.0652 -0.08754,-0.11968 -0.13086,-0.17383 l -0.04687,-0.0605 c 0.01424,0.017 0.02851,0.0406 0.04297,0.0586 -0.406499,-0.59271 -1.073079,-0.98437 -1.933594,-0.98438 H 51.710938 l 0.08984,0.006 c -0.884891,-0.10585 -1.741511,0.25494 -2.248047,1.22461 -2.38807,4.57184 -4.774193,9.14504 -7.162109,13.7168 H 25.136719 c 4.075352,-11.3715 8.151394,-22.74238 12.226562,-34.115234 0.648903,-1.810976 -0.89218,-3.119019 -2.441406,-3.033203 z m 96.914065,41.447267 c -0.0234,0.015 -0.0287,0.0464 -0.0527,0.0606 l 0.11524,-0.084 c -0.0163,0.0144 -0.0458,0.01 -0.0625,0.0234 z m -111.707034,-0.0488 c 0.01792,0.0131 0.02072,0.0381 0.03906,0.0508 l -0.08008,-0.0664 c -0.001,-9.8e-4 -0.0029,-9.8e-4 -0.0039,-0.002 l 0.203125,0.20508 h 0.3125 z"
     inkscape:path-effect="#path-effect16434"
     inkscape:original-d="m 4.617213,0.75585938 c -2.1493312,0 -2.1493312,3.33398442 0,3.33398442 H 143.54886 c 2.14932,0 2.14932,-3.33398442 0,-3.33398442 z M 51.662135,11.767578 c -0.490772,0 -0.86421,0.177094 -1.130859,0.445312 -0.01623,0.01359 -0.0312,0.02867 -0.04687,0.04297 -0.0143,0.01568 -0.02938,0.03064 -0.04297,0.04687 -0.268218,0.266649 -0.445312,0.640088 -0.445312,1.130859 v 3.607422 c -15.08207,0.04252 -30.164113,0.08842 -45.2460945,0.13086 -2.1493312,0.0053 -2.1493312,3.337364 0,3.332031 15.0819815,-0.04244 30.1640245,-0.08638 45.2460945,-0.128906 v 22.61914 c 0,0.490772 0.177094,0.86421 0.445312,1.13086 0.01359,0.01623 0.02867,0.0312 0.04297,0.04687 0.01566,0.01429 0.03066,0.02939 0.04687,0.04297 0.266649,0.268219 0.640087,0.447266 1.130859,0.447266 h 6.333985 l 13.958984,18.568359 c 0.145233,0.13151 0.300092,0.234312 0.460937,0.310547 v 38.562502 c 0,2.14932 3.333985,2.14932 3.333985,0 V 62.537109 l 13.796875,-17.875 h 6.892578 c 0.494351,0 0.869772,-0.181568 1.136719,-0.453125 0.0081,-0.0068 0.01551,-0.01446 0.02344,-0.02148 0.02191,-0.02327 0.04415,-0.04578 0.06445,-0.07031 0.264321,-0.266269 0.441407,-0.636468 0.441407,-1.123047 v -22.55664 c 15.148225,-0.04382 30.295125,-0.089 45.443365,-0.132813 2.15066,-0.0067 2.15066,-3.34065 0,-3.333984 -15.14824,0.04381 -30.29514,0.09094 -45.443365,0.134765 V 13.4336 c 0,-0.486578 -0.177086,-0.856777 -0.441407,-1.123046 -0.0203,-0.02454 -0.04254,-0.04704 -0.06445,-0.07031 -0.0079,-0.007 -0.01536,-0.01463 -0.02344,-0.02148 -0.266947,-0.271558 -0.642368,-0.451172 -1.136719,-0.451172 z m 1.666016,3.332031 H 94.77151 V 41.328125 H 53.328151 Z m 8.808594,29.5625 H 85.37112 L 73.599635,59.910156 Z m -32.5625,28.363281 c -0.298968,0 -0.551782,0.06864 -0.767578,0.179688 -0.807747,-0.226564 -1.819037,0.04763 -2.208985,1.042969 L 0.87502552,139.96484 c -0.33592018,0.8572 0.0634341,1.5007 0.68945308,1.80664 0.2459931,0.17255 0.5347797,0.30079 0.9160156,0.30079 H 145.4805 c 0.38123,0 0.67002,-0.12824 0.91601,-0.30079 0.62592,-0.30594 1.02733,-0.94944 0.69141,-1.80664 -8.57466,-21.9053 -17.15057,-43.811482 -25.72656,-65.716793 -0.0448,-0.114474 -0.10021,-0.216718 -0.16016,-0.3125 -0.2318,-0.514825 -0.71005,-0.910157 -1.44727,-0.910157 H 83.226588 c -2.14933,0 -2.14933,3.332031 0,3.332031 h 35.400392 c 8.13987,20.793358 16.27887,41.588239 24.41992,62.382819 H 4.9160411 C 13.058991,117.93779 21.200826,97.135209 29.343776,76.333984 c 0.07552,0.0093 0.148731,0.02344 0.230469,0.02344 h 36.529296 c 2.149331,0 2.149331,-3.332031 0,-3.332031 z m 5.388672,19.355469 c -0.633398,0.03509 -1.255391,0.38372 -1.525391,1.136719 -4.447995,12.411992 -8.897708,24.824962 -13.345703,37.238282 -0.272082,0.75933 0.0095,1.35568 0.505859,1.69922 7.62e-4,5.3e-4 0.0012,10e-4 0.002,0.002 3.6e-4,3.4e-4 0.0016,-3.4e-4 0.002,0 0.264238,0.24757 0.629309,0.40821 1.097657,0.40821 h 22.109375 c 0.561174,0.0664 1.137212,-0.16117 1.484375,-0.82618 2.459204,-4.70927 4.918741,-9.41516 7.376953,-14.12304 h 16.857422 c 3.152095,4.70778 6.305067,9.41525 9.457031,14.12304 0.04937,0.0737 0.101434,0.13908 0.15625,0.20118 0.265831,0.36699 0.688715,0.625 1.28125,0.625 h 49.916015 c 0.44898,0 0.79914,-0.15072 1.06054,-0.38086 0.55147,-0.32602 0.87328,-0.9346 0.54688,-1.72852 -4.092,-9.96665 -8.18596,-19.93312 -12.2793,-29.89844 -0.0422,-0.10275 -0.092,-0.19569 -0.14648,-0.2832 -0.22617,-0.52957 -0.70795,-0.939455 -1.45899,-0.939455 H 83.226588 c -2.14933,0 -2.14933,3.332035 0,3.332035 H 116.9551 c 3.63601,8.85568 7.27307,17.70984 10.91016,26.56445 H 81.310573 c -3.151826,-4.70726 -6.306035,-9.41441 -9.458985,-14.12305 -0.04044,-0.0605 -0.0828,-0.11535 -0.126953,-0.16796 -0.263723,-0.38602 -0.700707,-0.65626 -1.3125,-0.65626 H 51.710963 c -0.561778,-0.0672 -1.140247,0.15797 -1.488281,0.82422 -2.458812,4.70727 -4.916188,9.41578 -7.375,14.12305 H 24.062526 C 28.25869,117.82241 32.45634,106.1145 36.65237,94.404347 37.106536,93.136848 36.01858,92.322433 34.962917,92.380909 Z" />
</svg>
