<?xml version="1.0" encoding="UTF-8" standalone="no"?>
<!-- Created with Inkscape (http://www.inkscape.org/) -->

<svg
   version="1.1"
   id="svg5026"
   width="681.99054"
   height="625.33331"
   viewBox="0 0 681.99054 625.33331"
   xmlns="http://www.w3.org/2000/svg"
   xmlns:svg="http://www.w3.org/2000/svg">
  <defs
     id="defs5030" />
  <g
     id="g5032"
     transform="translate(-93.333336,-152)">
    <path
       style="fill:#435352;fill-opacity:1;stroke:none;stroke-width:1.33333"
       d="m 93.333336,733.33333 v -44 H 134.0787 c 29.68989,0 40.49538,-0.40444 39.8241,-1.4906 -2.72078,-4.40233 -3.1971,-18.3308 -3.23196,-94.5094 -0.0419,-91.46304 -0.0907,-90.81668 8.12318,-107.69708 4.79773,-9.85996 15.87209,-22.28049 25.60051,-28.71246 7.66326,-5.06659 20.43805,-9.96699 35.38298,-13.57291 9.03427,-2.17979 9.69639,-2.5742 8.7103,-5.18833 -1.58796,-4.20971 -2.16614,-229.16052 -0.61479,-239.19368 3.47311,-22.46175 18.63637,-39.14162 40.84027,-44.92499 C 295.39763,152.30283 310.23884,152 388.88118,152 c 62.44429,0 94.60747,0.4784 99.38654,1.47827 16.60445,3.474 31.09616,15.25478 38.81899,31.55729 L 531.33335,194 v 120.66667 c 0,66.36666 -0.46848,121.9475 -1.04107,123.51297 -0.96171,2.62932 -0.30099,3.02487 8.66667,5.18833 14.87671,3.58906 27.66127,8.49671 35.31321,13.55582 10.09472,6.67416 20.88686,18.99656 26.33615,30.07048 7.45639,15.1527 8.67545,23.70489 8.70189,61.04668 l 0.0232,32.70762 10.15596,5.02531 c 5.58579,2.76392 10.3037,4.84549 10.48426,4.62571 0.18054,-0.21978 5.26028,-15.24959 11.28829,-33.39959 6.02801,-18.15 11.16019,-33 11.40483,-33 0.24464,0 5.37681,14.85 11.40483,33 6.02801,18.15 11.11288,33.18495 11.2997,33.411 0.18683,0.22604 14.80955,-6.82876 32.49492,-15.67735 l 32.15524,-16.08834 -16.08834,32.15524 c -8.84859,17.68537 -15.90339,32.30809 -15.67735,32.49492 0.22605,0.18682 15.40885,5.32098 33.73957,11.40922 l 33.32858,11.06954 -33.17194,11.06736 c -18.24456,6.08704 -33.42222,11.31765 -33.72816,11.62358 -0.30593,0.30592 1.69932,5.11463 4.45611,10.686 l 5.01233,10.12976 27.38726,0.35954 27.3872,0.35953 0.35154,43.66667 0.35156,43.66666 H 433.35156 93.333336 Z m 545.711814,-5 c -4.81187,-14.48333 -8.90053,-26.51834 -9.08592,-26.74448 -0.18539,-0.22613 -14.26703,6.55888 -31.29255,15.07782 -17.02552,8.51893 -31.22901,15.21544 -31.56332,14.88113 -0.3343,-0.33432 1.53822,-4.86933 4.16118,-10.07783 l 4.769,-9.46997 -94.3501,-0.005 -94.3501,-0.005 -9.87834,5.00599 -9.87835,5.00597 h -78.2451 -78.24509 l -9.89195,-5.0213 -9.89194,-5.02131 -37.69799,0.35464 -37.698,0.35335 -0.28662,21.00089 -0.28662,21.00088 266.23032,-8.8e-4 266.23034,-8.9e-4 z m 112.65539,5.33334 -0.36719,-21 -11.04428,-0.38798 -11.04428,-0.38797 4.79652,9.52463 c 2.6381,5.23853 4.523,9.79813 4.1887,10.13245 -0.33431,0.33431 -14.5378,-6.3622 -31.56332,-14.88113 -17.02552,-8.51894 -31.10716,-15.30395 -31.29255,-15.07782 -0.18539,0.22614 -4.27405,12.26115 -9.08592,26.74448 l -8.74886,26.33334 h 47.26419 47.26419 z m -383.58468,-36.7061 c 5.45463,-3.67588 10.50964,-12.16246 10.4996,-17.62724 -0.0107,-5.82973 -4.37465,-14.50557 -8.92668,-17.7469 -6.94973,-4.94864 -13.91726,-5.52014 -67.7126,-5.55383 L 249.95237,656 l -4.78563,-3.25192 c -6.37593,-4.33255 -9.16673,-10.60916 -9.16673,-20.61625 V 624 h -22.10008 -22.10008 l 0.43341,26.33333 c 0.40469,24.58847 0.63968,26.71998 3.54643,32.1684 3.84046,7.19863 8.5929,11.77671 15.55365,14.98303 4.97415,2.29123 10.28131,2.45865 78.80283,2.48596 l 73.46948,0.0293 4.51021,-3.03942 z m 288.12945,-9.14606 c 2.88579,-8.96008 3.40305,-9.6634 8.81236,-11.98211 l 5.74663,-2.46329 9.29829,4.68254 9.2983,4.68255 -4.5445,-9.03376 -4.5445,-9.03377 2.32098,-5.9249 c 2.19288,-5.59786 2.82102,-6.09354 11.38054,-8.9809 4.98276,-1.68082 9.31761,-3.31408 9.63301,-3.62948 0.3154,-0.31542 -3.76841,-1.97186 -9.07513,-3.681 -8.3582,-2.69194 -9.88859,-3.68198 -11.44326,-7.4028 -2.59496,-6.21062 -2.2668,-8.85504 2.19598,-17.69572 l 3.99064,-7.90543 -9.40655,4.50796 -9.40653,4.50796 -5.54543,-2.48276 c -5.05468,-2.26305 -5.81264,-3.27492 -8.56502,-11.43432 -1.66078,-4.92335 -3.26569,-9.19764 -3.56646,-9.49841 -0.30078,-0.30078 -1.98703,3.77362 -3.74723,9.05421 -3.04731,9.14192 -3.47999,9.71041 -9.04731,11.88715 l -5.84694,2.28606 12.24174,9.16947 c 6.73298,5.0432 12.24176,9.63068 12.24176,10.19439 0,2.39008 -12.4871,16.88814 -13.85252,16.08338 -0.81445,-0.48004 -6.04781,-4.32753 -11.62969,-8.55 l -10.14889,-7.67722 -8.51778,3.321 c -4.68478,1.82656 -9.71778,3.80436 -11.18445,4.39513 -2.13532,0.86009 -0.72571,1.7006 7.07445,4.21827 9.00326,2.90597 9.92232,3.55166 12.13352,8.52438 l 2.3924,5.38024 -4.46685,8.96672 c -2.45677,4.9317 -4.46685,9.28923 -4.46685,9.68343 0,0.39419 4.05137,-1.32353 9.00306,-3.81716 8.88048,-4.47213 9.07563,-4.50541 14.33334,-2.44384 6.38536,2.50375 6.53808,2.7048 10.0852,13.27752 1.53769,4.58333 3.01229,8.33333 3.27688,8.33333 0.26458,0 1.86065,-4.28346 3.54681,-9.51882 z M 521.33335,648.63684 v -40.69648 l -14.33334,9.55679 c -7.88333,5.25622 -14.60586,9.79218 -14.93897,10.07989 -0.33309,0.28772 1.90037,5.57608 4.96328,11.75192 l 5.56891,11.2288 -12.96327,7.2634 c -7.1298,3.99485 -22.85112,12.71936 -34.93627,19.38777 l -21.97298,12.1244 h 44.30632 44.30632 z m 71.10721,30.54053 c 2.76392,-5.58578 4.8455,-10.30373 4.62571,-10.48433 -0.21977,-0.18061 -11.79959,-4.09873 -25.73292,-8.70696 -13.93333,-4.60821 -26.08333,-8.65445 -27,-8.99164 -1.28525,-0.47277 -1.66667,3.84404 -1.66667,18.86291 v 19.47598 h 22.37428 22.3743 z M 435.74153,662.52325 c 17.3755,-9.62664 32.94112,-18.34592 34.59027,-19.37617 l 2.99845,-1.8732 -5.96649,-11.87999 -5.96649,-11.88 -33.79562,18.77779 -33.79563,18.7778 3.0458,7.54065 c 1.6752,4.14736 3.21884,10.06231 3.43034,13.14434 0.27161,3.95836 0.89585,5.40814 2.12604,4.93773 0.95784,-0.36628 15.95784,-8.54231 33.33333,-18.16895 z m 135.59182,-30.50933 c 13.93333,-4.60823 25.5058,-8.519 25.71659,-8.69061 3.38693,-2.75754 -28.34687,-28.62079 -38.45784,-31.34339 -3.86278,-1.04013 -6.68659,-0.99251 -10.59583,0.17873 l -5.32959,1.59679 v 23.9316 c 0,18.58336 0.37247,23.79459 1.66667,23.31852 0.91667,-0.33719 13.06667,-4.38343 27,-8.99164 z m -147.19991,-19.27055 46.63097,-25.92329 4.94482,9.99328 c 3.52376,7.1214 5.54582,9.83612 7.03614,9.4464 1.15024,-0.3008 10.30308,-6.04291 20.33966,-12.76023 l 18.24832,-12.21333 v -59.81815 -59.81814 l -5.92376,-1.49163 c -3.25807,-0.82039 -8.05807,-1.49161 -10.66667,-1.49161 h -4.74291 V 470 481.33333 H 488.7206 477.44119 l -0.38726,-11 -0.38725,-11 -16.93057,-0.37265 -16.93058,-0.37265 -26.66621,37.38177 -26.66622,37.38176 -24.90016,-35.00911 C 350.87785,479.08744 338.47994,462.28333 337.02202,461 c -2.20705,-1.94275 -5.30434,-2.33333 -18.50305,-2.33333 H 302.66668 V 508 557.33333 h 87.33333 87.33334 v -27.38725 -27.38725 l 11,0.38725 11,0.38725 0.35378,38.33334 L 500.04091,580 H 390.03405 280.02718 l -0.34692,-60.33333 -0.34692,-60.33334 -5.33333,-0.43888 c -2.93334,-0.24138 -7.57475,0.23014 -10.31427,1.04782 l -4.98092,1.48668 -0.35241,86.61905 -0.3524,86.61907 52.66667,0.0751 c 40.31956,0.0575 53.76072,0.489 57.33333,1.84072 2.56667,0.97112 5.75472,1.83726 7.08455,1.92475 1.32984,0.0875 23.40182,-11.5064 49.04888,-25.76421 z m -188.13343,-78.0767 c 0,-75.92562 1.33733,-69.35016 -12.73831,-62.63248 -14.97947,7.14905 -26.20584,21.62073 -29.76135,38.36477 -0.93,4.37968 -1.50034,23.00668 -1.50034,49 v 41.93437 h 22 22 z m 333.26742,31.87078 c -1.53272,-3.00438 -2.50641,-5.7429 -2.16375,-6.08557 0.34268,-0.34267 4.88454,1.52301 10.09303,4.14597 l 9.46997,4.769 v -27.8763 c 0,-24.02628 -0.36502,-29.05814 -2.64298,-36.43331 -3.40244,-11.01583 -11.32034,-22.004 -20.27239,-28.13331 C 557.49419,472.63979 547.1378,468 543.83238,468 c -0.6451,0 -1.1657,22.81484 -1.1657,51.08508 v 51.08508 l 7.66667,-0.54891 c 4.21667,-0.3019 9.76667,0.0557 12.33333,0.79467 9.17664,2.64204 9.75415,2.30271 6.60075,-3.87847 z m -156.53938,-104.44398 2.24532,-3.4268 h -24.82001 c -17.58791,0 -24.82002,0.43981 -24.82002,1.5094 0,1.56261 17.04551,26.23757 21.71619,31.43621 l 2.64647,2.94561 10.39336,-14.51881 c 5.71636,-7.98535 11.40376,-16.06088 12.63869,-17.94561 z m 93.53095,-27.97752 3.74101,-3.2174 v -67.7826 -67.78262 h -16 -16 l -0.37437,16.33334 -0.37437,16.33333 -87.62563,0.003 -87.62563,0.003 0.42631,-13.54173 c 0.66389,-21.08848 1.78066,-19.79693 -17.11838,-19.79693 h -15.9746 v 68.0606 68.06061 l 3.27273,3.27272 3.27272,3.27273 h 113.31959 113.31959 z m -127.59543,-51.16987 0.003,-11.05392 11,0.38725 11,0.38726 0.38762,10.23382 0.38763,10.23383 -11.39073,0.43284 -11.39075,0.43284 0.003,-11.05392 z m 65.33334,0 0.003,-11.05392 11,0.38725 11,0.38726 0.38763,10.23382 0.38763,10.23383 -11.39074,0.43284 -11.39074,0.43284 0.003,-11.05392 z M 313.10154,382.6698 313.5364,372 h 10.56514 10.56514 v 10.66667 10.66666 l -11,0.003 -11,0.003 0.43486,-10.6698 z m 142.58361,-120.33647 -0.3518,-43 -65.66667,-0.34589 -65.66667,-0.34591 v 43.34591 43.34589 h 66.01847 66.01848 z M 302.00001,262 v -10.66667 l -16.33334,-0.37437 -16.33333,-0.37437 V 262 273.41541 l 16.33333,-0.37437 16.33334,-0.37437 z m 208,0 v -10.66667 h -16 -16 l -0.38792,11.04148 -0.38793,11.04148 16.38793,-0.37481 16.38792,-0.37481 z M 302.37438,212.33333 302.74876,196 h 87.29229 87.2923 v 16.70771 16.7077 l 16.33333,-0.37437 16.33333,-0.37437 v -14 c 0,-12.60399 -0.3689,-14.7512 -3.6996,-21.53354 -3.90206,-7.94584 -9.15366,-12.83733 -17.54796,-16.34469 -4.48134,-1.87243 -16.18557,-2.12177 -99.59647,-2.12177 -93.7938,0 -94.56489,0.0219 -100.58737,2.85277 -3.33796,1.56903 -7.84894,4.63269 -10.0244,6.80816 -7.25442,7.2544 -8.41216,10.95997 -8.97151,28.71455 l -0.51588,16.37548 16.47159,-0.37548 16.4716,-0.37548 z"
       id="path5153" />
  </g>
</svg>
