<svg viewBox="0 0 56.193 51.51" height="194.684" width="212.383" xmlns="http://www.w3.org/2000/svg"><path d="M37.461 38.398c-.561 0-.936.375-.936.937s.375.936.936.936c.562 0 .937-.374.937-.936s-.375-.937-.937-.937M37.461 22.477c-.561 0-.936.374-.936.936s.375.937.936.937c.562 0 .937-.375.937-.937s-.375-.936-.937-.936M41.208 38.398c-.562 0-.937.375-.937.937s.375.936.937.936.936-.374.936-.936-.374-.937-.936-.937" fill="#435352"/><path d="M53.383 26.223c.562 0 .936.375.936.937v.936h-1.873v-.936c0-.562.375-.937.937-.937m0 13.112c-.562 0-.937-.375-.937-.937v-.937h1.873v.937c0 .562-.374.937-.936.937m-.937-9.366h1.874v1.873h-1.874zm1.873 5.619h-1.873v-1.873h1.873zM30.25 44.017l2.154-8.522c.843-3.278-.562-6.649-3.278-8.242a7.514 7.514 0 00-3.746-1.03H12.268a6.515 6.515 0 00-6.555 6.556v1.873a1.88 1.88 0 01-1.873 1.873 1.879 1.879 0 01-1.874-1.873V13.111c0-1.03.843-1.873 1.874-1.873.655 0 1.217.375 1.591.937.843 1.404 1.686 2.341 2.81 2.996a11.7 11.7 0 006.088 1.686h.655c1.405 0 2.717-.187 4.027-.562l9.834-2.903c4.402-1.311 9.085-.468 12.831 2.154 3.653 2.529 5.806 6.463 6.088 10.771v17.7zm22.196 1.874c1.031 0 1.873.842 1.873 1.873 0 1.03-.842 1.873-1.873 1.873H3.745a1.879 1.879 0 01-1.873-1.873c0-1.031.843-1.873 1.873-1.873H49.637zM32.779 1.873h1.873v3.746h-1.873zm20.604 39.335c1.592 0 2.81-1.218 2.81-2.81V27.16c0-1.593-1.218-2.81-2.81-2.81s-2.81 1.217-2.81 2.81v4.682h-.936V26.223c-.281-4.87-2.81-9.272-6.837-12.175-2.483-1.727-5.276-2.768-8.148-3.055V7.492h2.809c.562 0 .937-.375.937-.936 0-.562-.375-.937-.937-.937h-.936V1.873h.936c.562 0 .937-.375.937-.937S38.023 0 37.461 0h-7.492c-.562 0-.936.374-.936.936s.374.937.936.937h.936v3.746h-.936c-.562 0-.936.374-.936.936s.374.937.936.937h2.81v3.421a16.405 16.405 0 00-4.496.7l-9.833 2.903c-1.124.281-2.248.468-3.466.468h-.655c-1.873 0-3.653-.468-5.152-1.405-.842-.468-1.498-1.217-2.154-2.341-.749-1.124-1.966-1.873-3.278-1.873A3.757 3.757 0 000 13.111v21.541a3.761 3.761 0 002.809 3.627v2.929c0 .562.374.936.936.936.563 0 .937-.374.937-.936v-2.929a3.762 3.762 0 002.81-3.627v-1.873c0-2.623 2.06-4.683 4.682-4.683h13.112c.937 0 1.967.281 2.81.75 2.06 1.217 3.091 3.746 2.435 6.181l-2.247 8.99H3.745A3.757 3.757 0 000 47.764a3.757 3.757 0 003.745 3.746h48.701a3.758 3.758 0 003.747-3.746 3.758 3.758 0 00-3.747-3.747h-2.809V33.715h.936v4.683c0 1.592 1.218 2.81 2.81 2.81" fill="#435352"/><path d="M37.461 26.223c-1.592 0-2.809-1.217-2.809-2.81 0-1.592 1.217-2.809 2.809-2.809 1.593 0 2.81 1.217 2.81 2.809 0 1.593-1.217 2.81-2.81 2.81m0-7.492c-2.622 0-4.682 2.06-4.682 4.682 0 2.623 2.06 4.683 4.682 4.683 2.623 0 4.683-2.06 4.683-4.683 0-2.622-2.06-4.682-4.683-4.682M13.111 20.604h5.62c.561 0 .936-.375.936-.937s-.375-.937-.936-.937h-5.62c-.562 0-.936.375-.936.937s.374.937.936.937" fill="#435352"/></svg>