<?xml version="1.0" encoding="UTF-8" standalone="no"?>
<!-- Created with Inkscape (http://www.inkscape.org/) -->

<svg
   inkscape:version="1.2.2 (b0a8486541, 2022-12-01)"
   sodipodi:docname="sewing.svg"
   id="svg1694"
   version="1.1"
   viewBox="0 0 56.19291 51.51014"
   height="51.510139mm"
   width="56.192909mm"
   xmlns:inkscape="http://www.inkscape.org/namespaces/inkscape"
   xmlns:sodipodi="http://sodipodi.sourceforge.net/DTD/sodipodi-0.dtd"
   xmlns="http://www.w3.org/2000/svg"
   xmlns:svg="http://www.w3.org/2000/svg">
  <sodipodi:namedview
     id="namedview1696" />
  <path
     d="M 37.461 38.398 C 36.9 38.398 36.525 38.773 36.525 39.335 C 36.525 39.897 36.9 40.271 37.461 40.271 C 38.023 40.271 38.398 39.897 38.398 39.335 C 38.398 38.773 38.023 38.398 37.461 38.398"
     style="fill:#435352;fill-opacity:1;fill-rule:nonzero;stroke:none;stroke-width:0.353;stroke-opacity:1;stroke-dasharray:none"
     id="path91"
      />
  <path
     d="m 37.461,22.477 c -0.561,0 -0.936,0.374 -0.936,0.936 0,0.562 0.375,0.937 0.936,0.937 0.562,0 0.937,-0.375 0.937,-0.937 0,-0.562 -0.375,-0.936 -0.937,-0.936"
     style="display:inline;fill:#435352;fill-opacity:1;fill-rule:nonzero;stroke:none;stroke-width:0.353;stroke-opacity:1;stroke-dasharray:none"
     id="path95"
      />
  <path
     d="M 41.208 38.398 C 40.646 38.398 40.271 38.773 40.271 39.335 C 40.271 39.897 40.646 40.271 41.208 40.271 C 41.77 40.271 42.144 39.897 42.144 39.335 C 42.144 38.773 41.77 38.398 41.208 38.398"
     style="fill:#435352;fill-opacity:1;fill-rule:nonzero;stroke:none;stroke-width:0.353;stroke-opacity:1;stroke-dasharray:none"
     id="path99"
      />
  <path
     d="M 53.383 26.223 C 53.945 26.223 54.319 26.598 54.319 27.16 L 54.319 28.096 L 52.446 28.096 L 52.446 27.16 C 52.446 26.598 52.821 26.223 53.383 26.223 M 53.383 39.335 C 52.821 39.335 52.446 38.96 52.446 38.398 L 52.446 37.461 L 54.319 37.461 L 54.319 38.398 C 54.319 38.96 53.945 39.335 53.383 39.335 M 52.446 29.969 L 54.32 29.969 L 54.32 31.842 L 52.446 31.842 Z M 54.319 35.588 L 52.446 35.588 L 52.446 33.715 L 54.319 33.715 Z M 30.25 44.017 L 32.404 35.495 C 33.247 32.217 31.842 28.846 29.126 27.253 C 28.002 26.598 26.691 26.223 25.38 26.223 L 12.268 26.223 C 8.616 26.223 5.713 29.126 5.713 32.779 L 5.713 34.652 C 5.713 35.682 4.869 36.525 3.84 36.525 C 2.809 36.525 1.966 35.682 1.966 34.652 L 1.966 13.111 C 1.966 12.081 2.809 11.238 3.84 11.238 C 4.495 11.238 5.057 11.613 5.431 12.175 C 6.274 13.579 7.117 14.516 8.241 15.171 C 10.114 16.295 12.174 16.857 14.329 16.857 L 14.984 16.857 C 16.389 16.857 17.701 16.67 19.011 16.295 L 28.845 13.392 C 33.247 12.081 37.93 12.924 41.676 15.546 C 45.329 18.075 47.482 22.009 47.764 26.317 L 47.764 27.16 L 47.764 44.017 Z M 52.446 45.891 C 53.477 45.891 54.319 46.733 54.319 47.764 C 54.319 48.794 53.477 49.637 52.446 49.637 L 3.745 49.637 C 2.715 49.637 1.872 48.794 1.872 47.764 C 1.872 46.733 2.715 45.891 3.745 45.891 L 27.815 45.891 L 49.637 45.891 Z M 32.779 1.873 L 34.652 1.873 L 34.652 5.619 L 32.779 5.619 Z M 53.383 41.208 C 54.975 41.208 56.193 39.99 56.193 38.398 L 56.193 27.16 C 56.193 25.567 54.975 24.35 53.383 24.35 C 51.791 24.35 50.573 25.567 50.573 27.16 L 50.573 31.842 L 49.637 31.842 L 49.637 27.253 L 49.637 26.223 C 49.356 21.353 46.827 16.951 42.8 14.048 C 40.317 12.321 37.524 11.28 34.652 10.993 L 34.652 7.492 L 35.589 7.492 L 37.461 7.492 C 38.023 7.492 38.398 7.117 38.398 6.556 C 38.398 5.994 38.023 5.619 37.461 5.619 L 36.525 5.619 L 36.525 1.873 L 37.461 1.873 C 38.023 1.873 38.398 1.498 38.398 0.936 C 38.398 0.374 38.023 0 37.461 0 L 35.589 0 L 31.842 0 L 29.969 0 C 29.407 0 29.033 0.374 29.033 0.936 C 29.033 1.498 29.407 1.873 29.969 1.873 L 30.905 1.873 L 30.905 5.619 L 29.969 5.619 C 29.407 5.619 29.033 5.993 29.033 6.555 C 29.033 7.117 29.407 7.492 29.969 7.492 L 31.842 7.492 L 32.779 7.492 L 32.779 10.913 C 31.277 10.936 29.767 11.165 28.283 11.613 L 18.45 14.516 C 17.326 14.797 16.202 14.984 14.984 14.984 L 14.329 14.984 C 12.456 14.984 10.676 14.516 9.177 13.579 C 8.335 13.111 7.679 12.362 7.023 11.238 C 6.274 10.114 5.057 9.365 3.745 9.365 C 1.685 9.365 0 11.051 0 13.111 L 0 34.652 C 0 36.389 1.198 37.86 2.809 38.279 L 2.809 41.208 C 2.809 41.77 3.183 42.144 3.745 42.144 C 4.308 42.144 4.682 41.77 4.682 41.208 L 4.682 38.279 C 6.293 37.86 7.492 36.389 7.492 34.652 L 7.492 32.779 C 7.492 30.156 9.552 28.096 12.174 28.096 L 25.286 28.096 C 26.223 28.096 27.253 28.377 28.096 28.846 C 30.156 30.063 31.187 32.592 30.531 35.027 L 28.284 44.017 L 3.745 44.017 C 1.685 44.017 0 45.703 0 47.764 C 0 49.824 1.685 51.51 3.745 51.51 L 52.446 51.51 C 54.507 51.51 56.193 49.824 56.193 47.764 C 56.193 45.703 54.507 44.017 52.446 44.017 L 49.637 44.017 L 49.637 33.715 L 50.573 33.715 L 50.573 38.398 C 50.573 39.99 51.791 41.208 53.383 41.208"
     style="fill:#435352;fill-opacity:1;fill-rule:nonzero;stroke:none;"
     id="path103"
      />
  <path
     d="M 37.461 26.223 C 35.869 26.223 34.652 25.006 34.652 23.413 C 34.652 21.821 35.869 20.604 37.461 20.604 C 39.054 20.604 40.271 21.821 40.271 23.413 C 40.271 25.006 39.054 26.223 37.461 26.223 M 37.461 18.731 C 34.839 18.731 32.779 20.791 32.779 23.413 C 32.779 26.036 34.839 28.096 37.461 28.096 C 40.084 28.096 42.144 26.036 42.144 23.413 C 42.144 20.791 40.084 18.731 37.461 18.731"
     style="fill:#435352;fill-opacity:1;fill-rule:nonzero;stroke:none;stroke-width:0.353;stroke-opacity:1;stroke-dasharray:none"
     id="path107"
      />
  <path
     d="M 13.111 20.604 L 18.731 20.604 C 19.292 20.604 19.667 20.229 19.667 19.667 C 19.667 19.105 19.292 18.73 18.731 18.73 L 13.111 18.73 C 12.549 18.73 12.175 19.105 12.175 19.667 C 12.175 20.229 12.549 20.604 13.111 20.604"
     style="fill:#435352;fill-opacity:1;fill-rule:nonzero;stroke:none;stroke-width:0.353;stroke-opacity:1;stroke-dasharray:none"
     id="path111"
      />
</svg>
