<svg width="220.161" height="211.524" viewBox="0 0 58.251 55.966" xmlns="http://www.w3.org/2000/svg"><path d="M23.213 10.468h.994l2.14 2.141 1.207-1.206-2.14-2.14v-.994l5.373-5.374a4.062 4.062 0 015.737 0l4.163 4.162-.393.392-.107-.107a3.502 3.502 0 00-4.953 0l-.732.731-1.955 1.956-2.689 2.687h-1.345a.853.853 0 00-.853.853v1.348l-2.55 2.55-4.446-4.45zm2.362-5.613l2.253-2.253.42.419-2.256 2.255zm22.077 17.57L45.4 24.676 32.855 12.133l.344-.344 1.907-1.909zm6.277 6.407c0 .08-.032.159-.09.216-.703.701-1.621 1.615-1.694 1.686a2.003 2.003 0 01-1.798.408 2.244 2.244 0 01-1.54-1.328l-.613-1.508a7.393 7.393 0 00-1.59-2.42l2.255-2.255 4.98 4.984c.058.057.09.135.09.217zm-29.422-9.558a.85.85 0 001.206 0l3.403-3.402c.16-.16.25-.377.25-.603v-.848h.847c.226 0 .443-.09.603-.25l.832-.832 13.705 13.706a5.71 5.71 0 011.26 1.9l.613 1.51a3.949 3.949 0 003.641 2.456 3.667 3.667 0 002.389-.877c.038-.033.071-.061 1.79-1.776a2.013 2.013 0 000-2.85L36.313 8.676l.13-.13a1.839 1.839 0 012.54 0l.71.71a.851.851 0 001.207 0l1.598-1.598a.85.85 0 000-1.206l-4.765-4.765a5.77 5.77 0 00-8.15 0l-.13.13L28.43.79a.854.854 0 00-1.207 0l-3.46 3.461a.852.852 0 000 1.207l1.022 1.023-.826.832a.852.852 0 00-.25.602v.848h-.849a.851.851 0 00-.603.25l-3.403 3.402a.852.852 0 000 1.207zm13.051 26.43l-.38-1.662c4.351-.999 10.655-2.011 15.145.716l-.885 1.458c-3.962-2.405-9.82-1.444-13.88-.511M1.708 54.26v-1.296c10.744-2.892 19.898-2.303 31.954-.292 3.54.56 7.12.83 10.702.81a90.97 90.97 0 0012.18-.835v1.613zm8.413-17.982a28.262 28.262 0 015.551 2.955C18.03 40.75 20.127 42.1 23.45 42.1a14.76 14.76 0 002.54-.235c3.62-.631 6.373-2.027 8.803-3.26 2.464-1.248 4.591-2.328 7.028-2.328h14.721v5.216a19.588 19.588 0 01-3.375-1.061c-2.428-.914-5.18-1.95-8.516-1.799-2.815.128-5.995 1.463-9.358 2.881-4.344 1.83-8.84 3.72-13.34 3.513-3.897-.18-7.18-1.896-10.356-3.558-3.234-1.69-6.301-3.283-9.893-3.358v-1.834zm8.898-4.675h.593v-1.706h-1.187l-.921-.612h4.217l-1.135.755a.853.853 0 00-.38.71v3.822h-1.187zm-.854 4.675h.602a16.271 16.271 0 005.557 2.881l.443-1.648a15.353 15.353 0 01-2.964-1.233h13.839a95.93 95.93 0 00-1.62.806c-2.438 1.236-4.956 2.514-8.325 3.101-4.244.74-6.281-.571-9.102-2.388-.76-.488-1.571-1.01-2.477-1.52zm38.38 14.647c-2.734.396-12.98 1.666-22.601.063-11.817-1.97-21.41-2.61-32.235.213v-6.316c3.656 2.397 8.1 2.912 11.687 3.071l.075-1.706c-3.682-.164-8.312-.718-11.762-3.476V39.82c3.193.082 6.07 1.58 9.102 3.164 3.341 1.746 6.794 3.551 11.069 3.748.249.011.497.017.746.017 4.638 0 9.245-1.94 13.333-3.661 3.217-1.356 6.26-2.637 8.774-2.75 2.988-.137 5.565.835 7.839 1.691 1.277.541 2.61.94 3.975 1.187v4.027c-8.515 1.894-28.635-.059-28.842-.08l-.168 1.698c.57.057 9.483.922 17.978.922 4.105 0 8.11-.203 11.032-.796zm.853-16.353H21.911v-3.364l3.106-2.065a.852.852 0 00-.473-1.563H14.68a.852.852 0 00-.471 1.562l3.104 2.066v3.363H.853a.853.853 0 00-.853.853v19.688c0 .471.382.854.853.854h56.545a.853.853 0 00.853-.853V35.425a.853.853 0 00-.853-.853" fill="#435352"/></svg>