<?xml version="1.0" encoding="UTF-8" standalone="no"?>
<!-- Created with Inkscape (http://www.inkscape.org/) -->

<svg
   width="58.251019mm"
   height="55.965813mm"
   viewBox="0 0 58.251019 55.965813"
   version="1.1"
   id="svg1694"
   sodipodi:docname="wood-workshop.svg"
   inkscape:version="1.2.2 (b0a8486541, 2022-12-01)"
   xmlns:inkscape="http://www.inkscape.org/namespaces/inkscape"
   xmlns:sodipodi="http://sodipodi.sourceforge.net/DTD/sodipodi-0.dtd"
   xmlns="http://www.w3.org/2000/svg"
   xmlns:svg="http://www.w3.org/2000/svg">
  <sodipodi:namedview
     id="namedview1696"
     pagecolor="#ffffff"
     bordercolor="#111111"
     borderopacity="1"
     inkscape:showpageshadow="0"
     inkscape:pageopacity="0"
     inkscape:pagecheckerboard="1"
     inkscape:deskcolor="#d1d1d1"
     inkscape:document-units="mm"
     showgrid="false"
     inkscape:zoom="1.9777138"
     inkscape:cx="101.6325"
     inkscape:cy="107.4473"
     inkscape:window-width="956"
     inkscape:window-height="1048"
     inkscape:window-x="0"
     inkscape:window-y="0"
     inkscape:window-maximized="1"
     inkscape:current-layer="layer1" />
  <defs
     id="defs1691">
    <clipPath
       clipPathUnits="userSpaceOnUse"
       id="clipPath1158">
      <g
         id="g1162"
         transform="translate(-182.5068,-697.3262)">
        <path
           d="M 0,768 H 1366 V 0 H 0 Z"
           id="path1160" />
      </g>
    </clipPath>
  </defs>
  <g
     inkscape:label="Layer 1"
     inkscape:groupmode="layer"
     id="layer1"
     transform="translate(-130.42433,-163.20082)">
    <g
       id="g43"
       clip-path="none"
       transform="matrix(0.35277777,0,0,-0.35277777,89.2527,419.67035)">
      <path
         d="m 182.507,697.326 h 2.817 l 6.067,-6.068 3.421,3.419 -6.068,6.066 v 2.818 l 15.233,15.234 c 4.495,4.484 11.769,4.484 16.264,0 l 11.799,-11.798 -1.113,-1.113 -0.304,0.305 c -3.878,3.878 -10.164,3.878 -14.041,0 l -2.073,-2.073 -5.544,-5.543 -7.621,-7.619 h -3.813 c -1.336,0 -2.418,-1.084 -2.418,-2.418 v -3.82 l -7.227,-7.226 -12.605,12.612 z m 6.697,15.913 6.386,6.385 1.188,-1.187 -6.392,-6.392 z m 62.58,-49.804 -6.385,-6.385 -35.561,35.557 0.977,0.977 5.406,5.409 z m 17.793,-18.162 c 0,-0.23 -0.091,-0.452 -0.255,-0.614 -1.993,-1.987 -4.596,-4.578 -4.803,-4.778 -1.409,-1.191 -3.31,-1.623 -5.095,-1.158 -1.975,0.485 -3.598,1.884 -4.369,3.765 l -1.734,4.276 c -1.036,2.562 -2.569,4.893 -4.508,6.859 l 6.391,6.392 14.12,-14.129 c 0.163,-0.162 0.255,-0.382 0.255,-0.613 z m -83.401,27.092 c 0.454,-0.455 1.067,-0.71 1.71,-0.71 0.641,0 1.256,0.255 1.709,0.71 l 9.646,9.644 c 0.453,0.453 0.708,1.068 0.708,1.71 v 2.403 h 2.402 c 0.641,0 1.255,0.255 1.708,0.708 l 2.358,2.358 38.851,-38.85 c 1.541,-1.537 2.757,-3.371 3.573,-5.388 l 1.734,-4.278 c 1.354,-3.32 4.216,-5.79 7.697,-6.644 0.859,-0.212 1.741,-0.319 2.625,-0.32 2.481,-0.006 4.883,0.877 6.771,2.488 0.108,0.092 0.202,0.173 5.076,5.033 1.073,1.07 1.676,2.524 1.676,4.039 0,1.516 -0.603,2.969 -1.676,4.038 l -53.102,53.105 0.366,0.366 c 2.015,1.924 5.186,1.924 7.2,0 l 2.015,-2.014 c 0.453,-0.454 1.068,-0.708 1.709,-0.708 0.643,0 1.258,0.254 1.711,0.708 l 4.531,4.532 c 0.456,0.454 0.71,1.069 0.71,1.71 0,0.641 -0.254,1.256 -0.71,1.71 l -13.507,13.507 c -6.384,6.371 -16.722,6.371 -23.105,0 l -0.366,-0.367 -2.901,2.903 c -0.454,0.453 -1.069,0.708 -1.71,0.708 -0.642,0 -1.257,-0.255 -1.711,-0.708 l -9.81,-9.812 c -0.453,-0.453 -0.708,-1.067 -0.708,-1.709 0,-0.641 0.255,-1.257 0.708,-1.71 l 2.901,-2.901 -2.343,-2.357 c -0.455,-0.453 -0.709,-1.068 -0.71,-1.709 v -2.403 h -2.405 c -0.642,0 -1.256,-0.255 -1.709,-0.709 l -9.646,-9.644 c -0.453,-0.453 -0.708,-1.067 -0.708,-1.709 0,-0.642 0.255,-1.257 0.708,-1.71 z m 36.996,-74.922 -1.081,4.715 c 12.336,2.83 30.205,5.7 42.932,-2.03 l -2.508,-4.134 c -11.229,6.817 -27.835,4.093 -39.343,1.449 M 121.547,573.192 v 3.675 c 30.456,8.198 56.406,6.526 90.58,0.828 10.034,-1.588 20.18,-2.356 30.337,-2.295 11.548,0.014 23.083,0.805 34.524,2.365 v -4.572 z m 23.849,50.974 c 5.541,-2.198 10.818,-5.008 15.736,-8.377 6.683,-4.303 12.627,-8.13 22.047,-8.13 2.414,0.014 4.824,0.236 7.202,0.666 10.259,1.79 18.064,5.747 24.953,9.24 6.983,3.539 13.014,6.6 19.921,6.6 h 41.729 V 609.38 c -3.273,0.712 -6.476,1.719 -9.567,3.008 -6.882,2.589 -14.684,5.526 -24.139,5.098 -7.982,-0.361 -16.996,-4.146 -26.529,-8.167 -12.313,-5.186 -25.055,-10.543 -37.811,-9.958 -11.048,0.509 -20.356,5.376 -29.359,10.086 -9.165,4.789 -17.86,9.306 -28.041,9.52 v 5.199 z m 25.224,13.25 h 1.681 v 4.836 h -3.367 l -2.61,1.737 h 11.954 l -3.218,-2.142 c -0.675,-0.449 -1.078,-1.205 -1.078,-2.013 v -10.832 h -3.363 z m -2.421,-13.25 h 1.706 c 4.673,-3.717 10.022,-6.491 15.753,-8.169 l 1.255,4.672 c -2.915,0.869 -5.731,2.04 -8.403,3.497 h 39.229 c -1.52,-0.733 -3.049,-1.506 -4.593,-2.287 -6.909,-3.502 -14.048,-7.125 -23.597,-8.79 -12.031,-2.094 -17.805,1.621 -25.8,6.771 -2.155,1.382 -4.455,2.86 -7.023,4.31 z m 108.793,-41.519 c -7.751,-1.123 -36.794,-4.725 -64.066,-0.181 -33.497,5.583 -60.692,7.398 -91.375,-0.603 v 17.904 c 10.364,-6.795 22.959,-8.253 33.129,-8.705 l 0.213,4.836 c -10.439,0.466 -23.563,2.036 -33.342,9.853 v 8.373 c 9.052,-0.231 17.205,-4.477 25.802,-8.969 9.47,-4.948 19.259,-10.065 31.376,-10.624 0.705,-0.032 1.41,-0.048 2.114,-0.048 13.147,0 26.206,5.498 37.795,10.379 9.12,3.844 17.747,7.474 24.872,7.796 8.47,0.388 15.773,-2.369 22.219,-4.795 3.62,-1.534 7.402,-2.663 11.27,-3.365 v -11.416 c -24.139,-5.368 -81.171,0.168 -81.759,0.226 l -0.475,-4.811 c 1.617,-0.161 26.881,-2.614 50.962,-2.614 11.636,0 22.989,0.576 31.271,2.256 z m 2.418,46.355 H 178.818 v 9.534 l 8.802,5.855 c 0.887,0.59 1.283,1.692 0.974,2.712 -0.308,1.02 -1.248,1.719 -2.314,1.719 h -27.957 c -1.065,-0.002 -2.001,-0.7 -2.309,-1.719 -0.307,-1.019 0.087,-2.118 0.972,-2.71 l 8.801,-5.855 v -9.533 h -46.662 c -1.336,0 -2.418,-1.083 -2.418,-2.418 v -55.81 c -10e-4,-1.336 1.082,-2.42 2.418,-2.42 H 279.41 c 1.336,0 2.418,1.084 2.418,2.418 v 55.809 c 0,1.335 -1.082,2.418 -2.418,2.418"
         style="fill:#435352;fill-opacity:1;fill-rule:nonzero;stroke:none"
         id="path45" />
    </g>
  </g>
</svg>
